<?xml version="1.0" standalone="no"?>
<!DOCTYPE svg PUBLIC "-//W3C//DTD SVG 20010904//EN"
 "http://www.w3.org/TR/2001/REC-SVG-20010904/DTD/svg10.dtd">
<svg version="1.0" xmlns="http://www.w3.org/2000/svg"
 width="1916.000000pt" height="1054.000000pt" viewBox="0 0 1916.000000 1054.000000"
 preserveAspectRatio="xMidYMid meet">

<g transform="translate(0.000000,1054.000000) scale(0.100000,-0.100000)"
fill="#000000" stroke="none">
<path d="M12397 9461 c-15 -25 -17 -59 -17 -249 0 -186 2 -221 15 -226 8 -3
15 -12 15 -21 0 -13 -298 -15 -2860 -15 l-2859 0 -3 -235 -3 -235 373 0 372 0
0 -25 0 -25 -2959 0 -2960 0 -4 28 c-2 15 -5 -897 -6 -2025 l-1 -2053 -750 0
c-493 0 -750 -3 -750 -10 0 -7 257 -10 750 -10 l750 0 0 -1515 0 -1515 -750 0
-750 0 0 -451 c0 -328 3 -448 11 -443 6 3 15 0 20 -7 5 -8 9 -9 9 -3 0 6 11
10 25 9 14 -2 27 1 31 6 3 5 12 2 21 -7 13 -12 18 -13 24 -3 4 8 12 10 16 5 4
-5 2 -11 -4 -13 -7 -3 -13 -9 -13 -14 0 -4 7 -6 15 -3 8 4 15 12 15 18 0 15
69 38 84 29 16 -10 96 -12 96 -2 0 14 20 10 38 -7 14 -15 16 -15 23 4 6 16 17
20 46 20 21 0 40 1 43 2 15 5 70 4 70 -2 0 -4 12 -5 27 -2 23 4 25 3 13 -11
-7 -8 -8 -15 -3 -15 5 0 16 9 26 20 10 12 22 18 27 15 6 -3 10 -1 10 5 0 7 24
9 71 5 46 -3 68 -2 64 5 -4 6 4 6 22 -1 15 -5 31 -16 35 -22 5 -8 8 -7 8 5 0
9 -6 18 -12 21 -7 2 -1 6 15 9 15 3 27 1 27 -3 0 -5 12 -4 27 2 15 6 42 8 60
4 21 -4 33 -2 33 5 0 6 12 0 26 -14 24 -22 62 -26 49 -5 -3 4 -13 5 -22 2 -10
-4 -14 -2 -10 4 8 12 32 15 140 16 42 1 77 5 77 10 0 4 10 1 22 -7 28 -20 50
-20 24 -1 -15 11 -16 15 -5 16 74 6 89 5 89 -5 0 -6 4 -4 10 4 11 18 60 19 79
2 8 -8 17 -9 25 -4 30 24 174 31 188 9 5 -8 8 -9 8 -1 0 18 32 26 42 12 6 -10
8 -9 8 3 0 10 11 19 25 21 14 3 25 2 25 -1 0 -3 15 -5 32 -4 18 1 33 2 33 4 0
7 72 4 82 -3 7 -5 18 -6 25 -2 20 13 47 16 131 16 42 0 77 5 77 10 0 5 10 2
22 -6 26 -18 38 -20 38 -6 0 6 -7 10 -17 10 -35 0 -4 11 41 14 28 2 46 -1 46
-8 0 -7 3 -8 8 -1 4 6 18 10 32 10 14 0 28 4 32 9 3 5 13 2 23 -7 15 -15 15
-18 1 -23 -9 -3 -16 -11 -16 -17 0 -5 9 -2 19 7 11 10 20 13 22 7 3 -7 9 -7
19 -1 13 8 12 10 -2 10 -10 0 -18 5 -18 11 0 6 6 9 13 6 6 -2 28 2 49 9 20 7
39 10 42 7 10 -10 101 -10 108 0 4 6 12 4 23 -6 18 -19 35 -22 35 -7 0 6 -4
10 -10 10 -5 0 -10 4 -10 8 0 5 24 9 52 10 29 0 70 3 90 6 22 2 38 0 38 -6 0
-6 11 -7 27 -3 22 5 25 4 15 -8 -9 -11 -8 -14 3 -14 8 0 15 6 15 14 0 7 9 13
20 13 11 0 20 3 20 8 0 4 38 7 84 7 53 0 82 -4 78 -10 -3 -5 -2 -7 3 -3 4 4
14 3 22 -3 10 -9 13 -8 13 4 0 8 -6 18 -12 20 -15 6 -1 8 97 11 88 3 101 -1
80 -24 -13 -15 -14 -20 -3 -26 7 -4 10 -4 6 1 -4 4 -1 14 7 21 7 8 15 19 18
26 2 7 8 9 13 5 5 -4 2 -12 -5 -16 -10 -6 -10 -10 -1 -16 7 -4 14 1 17 15 4
15 11 20 24 17 11 -3 19 -1 19 4 0 5 30 8 69 5 44 -2 71 0 74 7 2 6 14 3 30
-8 16 -10 27 -13 27 -6 0 6 -5 11 -12 11 -30 0 4 11 46 15 31 2 46 0 46 -8 0
-7 4 -6 10 3 11 18 61 19 80 1 10 -9 15 -10 18 -2 2 6 8 11 14 11 6 0 6 -6 -2
-15 -10 -13 -9 -15 8 -15 14 0 20 5 16 13 -7 19 50 34 109 29 40 -3 47 -7 43
-21 -4 -10 1 -8 13 6 23 27 28 28 47 8 20 -19 35 -19 28 0 -4 8 -10 12 -15 9
-5 -3 -9 -1 -9 4 0 5 11 12 25 14 13 3 22 2 20 -2 -3 -6 57 -5 75 0 3 1 21 1
40 1 64 -3 92 -1 109 8 9 5 49 7 88 6 42 -2 73 1 73 6 0 6 10 3 22 -5 28 -20
50 -20 24 -1 -20 15 -20 15 0 16 10 1 33 2 49 4 17 1 33 -3 37 -9 6 -8 8 -8 8
0 0 7 13 10 30 9 17 -1 30 2 30 7 0 5 7 2 17 -7 13 -14 14 -18 2 -25 -7 -5
-11 -12 -7 -15 4 -4 14 5 23 19 11 16 26 26 42 26 13 0 33 5 44 10 11 6 25 8
31 4 18 -12 102 -12 110 0 3 5 13 2 23 -7 18 -19 35 -22 35 -7 0 6 -8 10 -17
10 -32 0 -4 11 41 16 34 4 46 2 46 -8 0 -10 2 -10 9 1 10 15 59 20 78 8 7 -4
31 -2 55 4 66 17 138 18 154 2 8 -8 14 -10 14 -5 0 16 33 24 42 10 4 -7 8 -9
8 -4 0 5 10 1 21 -10 22 -19 22 -19 11 3 -7 12 -17 23 -24 25 -7 3 -1 7 15 10
15 3 27 2 27 -3 0 -4 12 -4 28 1 30 10 107 9 118 -2 4 -4 1 -14 -5 -22 -9 -11
-9 -16 1 -22 7 -4 10 -4 6 1 -4 4 -1 14 7 21 7 8 15 19 18 26 2 8 8 9 13 4 5
-5 4 -11 -3 -13 -7 -3 -13 -9 -13 -14 0 -4 7 -6 15 -3 8 4 15 12 15 19 0 18
41 25 118 21 34 -2 62 -1 62 3 0 8 45 13 130 14 36 1 68 6 72 11 3 5 14 1 24
-9 12 -11 19 -14 22 -6 2 6 8 11 14 11 6 0 6 -6 -2 -15 -10 -12 -10 -15 4 -15
9 0 16 6 16 13 0 22 62 35 121 26 29 -5 56 -5 59 0 6 11 80 32 80 23 0 -4 16
-7 35 -8 19 0 35 2 35 5 0 3 16 6 35 7 19 0 35 -3 35 -7 0 -9 20 -6 39 5 10 7
12 3 6 -15 -8 -24 -8 -24 19 2 25 26 31 27 119 25 51 -1 99 -6 105 -10 7 -4
12 -3 12 3 0 5 -6 11 -12 13 -7 3 -2 7 10 10 12 4 22 2 22 -3 0 -5 12 -4 26 1
14 6 41 8 59 6 20 -3 35 0 38 7 2 8 9 7 20 -4 12 -12 13 -19 5 -27 -7 -7 -9
-15 -5 -18 3 -4 12 5 18 20 12 26 29 35 29 16 0 -5 -5 -10 -11 -10 -5 0 -8 -4
-4 -10 8 -14 35 -1 29 15 -5 13 49 33 71 26 26 -8 101 -7 106 2 4 6 16 3 30
-7 29 -20 51 -21 25 -1 -11 8 -16 15 -10 16 5 0 28 2 52 5 31 4 42 2 42 -8 0
-9 3 -9 8 -2 10 15 72 26 72 13 0 -6 5 -7 10 -4 14 9 12 -2 -6 -33 l-16 -27
21 25 c11 14 21 28 21 31 0 7 64 19 128 23 26 1 49 -3 57 -10 11 -11 14 -11
19 1 6 18 36 20 36 3 0 -6 3 -8 7 -5 3 4 15 -1 26 -10 19 -17 20 -17 9 4 -7
12 -17 23 -24 25 -7 3 -1 7 14 10 15 3 25 1 22 -3 -7 -11 -1 -11 30 1 19 7 26
6 26 -3 0 -8 3 -8 8 -1 7 10 79 11 89 0 3 -3 0 -12 -6 -20 -9 -11 -9 -16 0
-22 8 -4 9 -3 5 4 -4 7 -3 12 2 12 5 0 12 8 15 19 5 20 14 22 140 24 42 1 77
5 77 10 0 4 10 1 22 -7 28 -20 50 -20 24 -1 -15 11 -16 15 -5 16 74 6 89 5 89
-5 0 -6 4 -4 10 4 11 18 61 19 79 2 12 -11 12 -15 1 -22 -7 -5 -9 -13 -4 -21
6 -10 11 -5 20 16 9 22 21 31 55 39 62 16 139 9 140 -13 0 -12 2 -12 9 4 5 11
9 16 9 10 1 -5 6 -3 11 5 9 13 11 13 20 0 8 -13 10 -12 10 4 0 11 5 16 14 13
7 -3 19 0 25 6 6 6 11 7 11 1 0 -9 49 -11 66 -3 5 3 25 4 44 2 32 -3 63 -3
112 0 9 1 14 5 12 9 -3 5 29 6 70 3 52 -4 76 -2 76 5 0 6 4 9 9 6 4 -3 22 -1
40 4 18 5 31 5 31 0 0 -6 10 -6 23 -1 12 4 39 8 60 7 20 -1 37 2 37 6 0 5 9 3
20 -4 17 -11 18 -14 4 -29 -9 -10 -11 -19 -5 -23 5 -4 12 2 16 12 4 14 12 18
30 14 20 -3 24 -1 19 11 -7 20 33 28 114 23 34 -2 62 -1 62 3 0 7 5 8 90 15
30 2 56 5 58 6 7 5 59 2 75 -5 14 -6 15 -10 6 -21 -7 -8 -10 -17 -7 -19 3 -3
11 6 18 20 14 26 33 35 24 12 -3 -8 2 -14 10 -14 8 0 12 6 8 15 -4 12 0 14 16
10 15 -4 22 -2 22 8 0 11 13 12 60 8 39 -3 79 1 110 10 28 8 50 11 50 6 0 -5
13 -5 30 0 21 6 30 5 30 -3 0 -9 2 -9 8 -1 8 12 70 12 90 0 7 -4 12 -2 12 3 0
6 5 11 11 11 6 0 8 -9 4 -20 -5 -15 -3 -18 9 -14 8 3 14 11 13 17 -1 7 6 11
15 11 10 -1 15 2 12 8 -3 5 24 7 70 4 43 -2 76 0 76 5 0 5 13 3 30 -6 37 -19
51 -19 26 0 -15 11 -16 15 -5 16 8 0 33 3 57 5 33 3 42 1 36 -8 -6 -10 -4 -10
7 -2 8 5 21 10 29 9 8 0 18 4 22 9 3 5 14 2 24 -8 14 -15 15 -19 3 -26 -11 -7
-11 -12 -2 -21 10 -10 14 -6 19 19 4 18 11 32 16 32 6 0 8 -6 5 -13 -3 -8 1
-14 8 -14 7 0 11 6 8 13 -10 25 143 36 159 11 5 -8 9 -6 14 6 6 17 34 24 34 8
0 -5 9 -11 19 -14 14 -3 18 -1 14 9 -3 8 -9 11 -14 8 -5 -3 -9 0 -9 5 0 7 22
10 55 8 30 -1 57 2 59 8 3 5 5 4 5 -2 1 -9 8 -10 27 -3 15 6 32 6 41 1 9 -5
31 -4 52 1 20 6 61 11 91 12 30 1 61 5 69 10 10 6 12 5 7 -3 -6 -8 0 -10 18
-5 14 3 26 2 26 -3 0 -5 10 -9 23 -10 20 -2 21 -1 4 11 -17 13 -16 14 3 19 11
3 20 1 20 -3 0 -5 13 -5 29 0 21 6 31 5 35 -3 3 -8 5 -9 5 -1 1 7 14 10 32 8
22 -3 28 0 23 9 -5 7 0 6 12 -3 10 -8 21 -16 23 -17 2 -1 -2 -9 -8 -17 -7 -8
-8 -17 -3 -20 5 -3 15 8 22 24 7 17 16 30 21 30 14 0 11 -18 -3 -23 -8 -3 -6
-6 5 -6 9 -1 17 5 17 13 0 21 27 27 108 22 40 -2 69 0 66 5 -3 5 -1 9 5 9 5 0
12 -4 15 -9 8 -12 46 -21 46 -10 0 5 -7 9 -17 9 -32 0 -6 10 40 16 35 4 47 2
47 -8 0 -9 3 -9 10 2 5 8 10 12 10 8 0 -4 13 -3 28 1 34 10 79 -13 49 -25 -9
-3 -14 -11 -11 -16 4 -7 10 -5 15 4 6 10 18 14 35 10 20 -3 25 -2 19 7 -4 7
-13 10 -21 7 -8 -3 -14 -2 -14 3 0 22 156 34 176 13 8 -7 14 -9 14 -4 0 16 33
24 42 10 4 -7 8 -10 8 -5 0 4 12 0 28 -9 l27 -16 -27 25 -27 25 25 5 c13 2 24
0 24 -4 0 -5 11 -4 24 1 17 6 26 5 30 -3 3 -8 5 -8 5 -1 1 16 90 8 110 -10 17
-14 45 -11 36 4 -11 18 35 29 104 25 39 -2 71 -1 71 3 0 4 8 8 18 9 9 1 40 3
68 6 28 2 55 7 61 10 6 4 13 3 17 0 11 -11 36 -12 36 -2 0 5 9 4 19 -3 17 -11
18 -14 5 -32 -16 -24 -18 -46 -4 -46 5 0 6 7 3 17 -5 12 -3 14 7 8 9 -5 11 -4
6 3 -4 7 -2 12 3 12 6 0 10 3 10 8 -3 18 2 32 12 32 6 0 8 -10 5 -22 -3 -13
-3 -17 0 -10 3 6 10 10 15 7 5 -4 6 0 4 7 -6 14 51 42 66 32 16 -10 104 -11
110 -2 4 6 17 3 33 -7 15 -10 30 -15 33 -11 4 4 -3 9 -15 13 -39 10 -24 20 31
21 28 0 54 1 57 2 16 6 72 5 75 -1 6 -9 77 0 91 12 6 5 39 7 74 4 40 -3 81 1
112 10 26 7 48 10 48 5 0 -6 9 -6 24 0 16 6 28 5 36 -3 10 -9 11 -9 5 1 -5 10
0 12 23 9 17 -3 32 -1 34 3 2 5 12 2 23 -6 17 -13 18 -16 5 -24 -12 -7 -12
-12 -3 -21 10 -10 14 -6 19 19 4 18 11 32 16 32 6 0 8 -7 4 -15 -3 -9 0 -15 9
-15 8 0 12 6 9 14 -8 20 59 32 92 17 19 -8 24 -8 18 0 -5 9 3 10 30 5 23 -4
36 -3 36 4 0 6 11 5 30 -5 37 -19 51 -19 26 0 -15 11 -16 15 -5 16 8 0 30 3
49 5 87 10 116 9 129 -4 11 -11 11 -16 2 -21 -9 -6 -8 -11 2 -20 12 -9 15 -9
14 1 -1 39 4 48 29 48 14 0 33 4 42 9 9 5 41 6 70 4 41 -5 52 -9 52 -23 0 -10
-5 -20 -12 -22 -7 -3 -8 -10 -4 -17 11 -17 26 4 26 37 0 27 28 41 41 21 5 -8
9 -10 9 -5 0 5 7 3 15 -4 10 -8 15 -9 15 -2 0 6 -7 15 -16 20 -14 8 -13 10 5
15 11 3 21 1 21 -3 0 -5 14 -5 30 0 21 6 30 5 30 -3 0 -8 3 -8 8 -2 6 9 40 11
82 6 14 -2 12 -28 -2 -34 -10 -4 -10 -6 0 -6 7 -1 17 10 23 23 7 15 17 22 25
19 8 -3 21 0 29 7 8 7 29 10 47 8 17 -3 47 -2 65 2 22 5 31 4 26 -3 -4 -6 2
-8 17 -4 12 3 33 2 46 -3 15 -6 24 -6 24 0 0 6 -7 10 -17 10 -34 0 -4 10 41
14 29 2 46 -1 46 -8 0 -7 3 -8 8 -1 4 6 16 11 27 10 11 0 23 5 28 10 4 7 10 6
15 -1 9 -14 42 -26 42 -15 0 8 75 26 93 22 35 -7 116 -7 111 0 -3 5 1 9 10 9
8 0 16 -4 18 -9 2 -4 14 -12 27 -16 16 -5 21 -4 17 4 -4 6 -14 11 -22 11 -8 0
-14 4 -14 8 0 5 25 8 55 8 30 -1 55 1 55 4 0 7 69 4 77 -4 8 -7 73 3 88 14 6
4 41 6 78 4 40 -2 83 3 107 11 23 8 42 10 45 5 3 -6 16 -5 30 0 18 7 25 6 25
-3 0 -8 3 -8 8 -2 8 12 88 13 99 1 4 -4 1 -11 -6 -15 -8 -5 -10 -14 -6 -21 6
-9 9 -9 16 1 4 8 13 15 19 15 5 1 14 2 20 3 5 0 7 8 3 18 -5 13 -2 15 15 11
13 -4 20 -2 16 3 -4 6 23 8 70 5 43 -2 76 0 76 5 0 5 14 2 31 -6 17 -9 33 -14
36 -11 3 3 -5 10 -18 15 -27 11 -22 12 72 16 37 1 71 5 75 8 5 3 18 -1 29 -9
15 -11 17 -17 7 -23 -10 -6 -10 -10 1 -20 12 -9 15 -9 14 1 -1 32 4 48 14 48
6 0 9 -7 5 -15 -3 -9 0 -15 10 -15 10 0 14 6 10 15 -3 10 1 15 14 15 10 0 21
4 25 9 7 12 109 2 114 -11 1 -5 9 -1 16 9 11 14 27 18 83 18 39 0 68 3 66 6
-2 5 59 5 89 0 11 -2 8 -31 -4 -31 -5 0 -7 -5 -3 -12 5 -8 12 -2 20 18 11 26
18 31 43 29 17 -1 28 2 25 7 -3 4 29 6 70 4 42 -3 76 -2 76 2 0 4 8 8 18 9 9
0 37 3 62 6 27 3 51 1 59 -6 12 -10 13 -9 7 1 -6 10 -1 12 22 9 17 -3 32 -1
34 3 2 5 11 3 21 -5 15 -11 16 -17 8 -34 -15 -28 -14 -38 7 -46 14 -5 15 -4 5
6 -16 16 -17 33 -3 24 6 -4 10 -3 9 2 -5 29 3 52 19 52 9 1 52 3 95 6 68 4 77
3 78 -13 0 -13 3 -12 11 6 11 22 33 30 40 13 2 -4 14 -12 28 -16 20 -6 23 -5
13 6 -7 7 -13 16 -13 19 0 12 74 10 82 -3 6 -9 8 -8 8 3 0 11 11 15 38 14 21
0 43 -3 49 -7 5 -4 25 -2 44 4 36 12 209 19 209 9 0 -3 9 -6 21 -6 18 0 18 2
4 12 -14 10 -13 12 5 17 11 3 20 1 20 -4 0 -5 10 -5 24 1 16 6 28 5 36 -3 10
-9 11 -9 6 0 -5 9 2 11 24 8 16 -2 30 0 30 5 0 5 12 2 27 -5 21 -11 29 -11 35
-2 4 6 11 8 15 3 4 -5 2 -11 -5 -13 -6 -3 -10 -9 -7 -13 9 -14 34 0 29 15 -8
19 23 26 104 21 40 -2 69 0 66 5 -7 12 -2 11 35 -7 18 -9 35 -13 38 -10 3 3
-5 10 -18 15 -14 6 -18 10 -9 11 8 1 32 3 53 6 24 2 37 -1 38 -9 0 -6 4 -3 9
8 5 11 9 14 9 8 1 -9 8 -10 28 -2 19 7 29 7 31 0 2 -6 11 -11 19 -11 13 0 13
-3 2 -16 -10 -13 -10 -17 2 -25 8 -5 19 -9 24 -9 6 0 4 4 -4 9 -17 11 -5 51
16 51 9 0 32 5 50 12 l33 12 0 233 c0 215 -1 233 -17 233 -10 0 -259 -18 -553
-40 -294 -22 -547 -40 -562 -40 l-28 0 0 1800 0 1800 583 3 582 2 -590 2
c-570 3 -597 2 -805 -22 -118 -14 -221 -25 -227 -25 -10 0 -13 315 -14 1538
-1 845 -4 1525 -6 1509 l-4 -27 -1886 2 -1885 3 1 333 2 332 -668 0 -669 0
-17 -29z m1343 -1 c0 -20 -5 -20 -657 -18 -617 3 -658 4 -661 21 -3 16 33 17
657 17 655 0 661 0 661 -20z m-1340 -1655 l0 -1135 -2400 0 c-1320 0 -2399 3
-2399 7 5 31 -3 36 -20 16 l-19 -23 -341 0 -341 0 0 555 0 555 360 0 360 0 0
217 0 216 -81 139 -81 138 -369 0 -369 0 0 225 0 225 2850 0 2850 0 0 -1135z
m657 133 c-2 -35 -3 -7 -3 62 0 69 1 97 3 63 2 -35 2 -91 0 -125z m0 -295 c-3
-10 -5 -2 -5 17 0 19 2 27 5 18 2 -10 2 -26 0 -35z m0 -375 c-3 -7 -5 -2 -5
12 0 14 2 19 5 13 2 -7 2 -19 0 -25z m0 -110 c-3 -7 -5 -2 -5 12 0 14 2 19 5
13 2 -7 2 -19 0 -25z m0 -401 c-1 -45 -3 -5 -3 88 0 94 2 130 3 82 2 -48 2
-125 0 -170z m-5457 -71 c0 -3 -4 -8 -10 -11 -5 -3 -10 -1 -10 4 0 6 5 11 10
11 6 0 10 -2 10 -4z m5130 -336 l0 -310 -3075 0 -3075 0 0 310 0 310 3075 0
3075 0 0 -310z m327 208 c-3 -7 -5 -2 -5 12 0 14 2 19 5 13 2 -7 2 -19 0 -25z
m0 -205 c-2 -21 -4 -6 -4 32 0 39 2 55 4 38 2 -18 2 -50 0 -70z m-3418 -483
c2338 0 2664 2 2701 15 23 8 46 15 51 15 5 0 9 -811 9 -1874 l0 -1874 -32 -5
c-18 -3 -81 -9 -140 -13 l-108 -6 0 1786 0 1786 -2475 0 -2475 0 -2 -1782 -3
-1783 -142 -3 -143 -3 0 1891 0 1890 50 -20 c50 -20 81 -20 2709 -20z m3418
-227 c-3 -10 -5 -4 -5 12 0 17 2 24 5 18 2 -7 2 -21 0 -30z m-10250 -135 c-3
-7 -5 -2 -5 12 0 14 2 19 5 13 2 -7 2 -19 0 -25z m10250 -130 c-3 -8 -6 -5 -6
6 -1 11 2 17 5 13 3 -3 4 -12 1 -19z m-10250 -160 c-3 -8 -6 -5 -6 6 -1 11 2
17 5 13 3 -3 4 -12 1 -19z m10250 -40 c-3 -8 -6 -5 -6 6 -1 11 2 17 5 13 3 -3
4 -12 1 -19z m-10250 -300 c-3 -7 -5 -2 -5 12 0 14 2 19 5 13 2 -7 2 -19 0
-25z m10262 -134 c1 -72 -3 -125 -9 -129 -7 -4 -10 44 -10 137 0 90 4 138 9
129 5 -8 10 -70 10 -137z m-4429 -854 c0 -663 0 -670 -20 -670 -20 0 -20 7
-20 670 0 663 0 670 20 670 20 0 20 -7 20 -670z m410 0 c0 -663 0 -670 -20
-670 -20 0 -20 7 -20 670 0 663 0 670 20 670 20 0 20 -7 20 -670z m-6243 593
c-2 -16 -4 -5 -4 22 0 28 2 40 4 28 2 -13 2 -35 0 -50z m10250 -5 c-3 -8 -6
-5 -6 6 -1 11 2 17 5 13 3 -3 4 -12 1 -19z m13 -45 c0 -22 -2 -25 -10 -13 -13
20 -13 40 0 40 6 0 10 -12 10 -27z m-10263 -15 c-3 -8 -6 -5 -6 6 -1 11 2 17
5 13 3 -3 4 -12 1 -19z m10250 -60 c-3 -8 -6 -5 -6 6 -1 11 2 17 5 13 3 -3 4
-12 1 -19z m-10250 -170 c-3 -8 -6 -5 -6 6 -1 11 2 17 5 13 3 -3 4 -12 1 -19z
m10256 -152 c-7 -101 -14 -96 -12 8 1 48 5 82 9 75 5 -6 6 -44 3 -83z m-273
-35 c0 -6 -4 -13 -10 -16 -5 -3 -10 1 -10 9 0 9 5 16 10 16 6 0 10 -4 10 -9z
m156 -178 c-11 -11 -17 4 -9 23 7 18 8 18 11 1 2 -10 1 -21 -2 -24z m-10135
-216 c-8 -8 -11 -5 -11 9 0 27 14 41 18 19 2 -9 -1 -22 -7 -28z m10255 -64
c-10 -10 -19 5 -10 18 6 11 8 11 12 0 2 -7 1 -15 -2 -18z m-135 -10 c-8 -15
-10 -15 -11 -2 0 17 10 32 18 25 2 -3 -1 -13 -7 -23z m-10112 -196 c0 -27 -2
-29 -9 -12 -12 28 -12 57 0 50 6 -3 10 -21 9 -38z m9958 -19 c-3 -7 -5 -2 -5
12 0 14 2 19 5 13 2 -7 2 -19 0 -25z m-9970 -60 c-3 -8 -6 -5 -6 6 -1 11 2 17
5 13 3 -3 4 -12 1 -19z m10323 -78 c0 -5 -7 -10 -16 -10 -8 0 -12 5 -9 10 3 6
10 10 16 10 5 0 9 -4 9 -10z m-10310 -145 c0 -19 -5 -37 -11 -40 -15 -10 -25
3 -11 17 6 6 8 24 5 41 -4 21 -3 28 5 23 7 -4 12 -22 12 -41z m-270 -15 c0 -5
-5 -10 -11 -10 -5 0 -7 5 -4 10 3 6 8 10 11 10 2 0 4 -4 4 -10z m10512 -42
c-7 -7 -12 -8 -12 -2 0 14 12 26 19 19 2 -3 -1 -11 -7 -17z m-316 -75 c-10
-10 -19 5 -10 18 6 11 8 11 12 0 2 -7 1 -15 -2 -18z m-9929 -55 c-2 -13 -4 -5
-4 17 -1 22 1 32 4 23 2 -10 2 -28 0 -40z m9913 2 c0 -5 -5 -10 -11 -10 -5 0
-7 5 -4 10 3 6 8 10 11 10 2 0 4 -4 4 -10z m-9911 -158 c-2 -46 -7 -86 -12
-89 -6 -3 -7 -1 -3 6 4 6 2 19 -5 27 -10 12 -9 20 1 40 11 19 11 27 2 36 -13
13 -16 66 -5 94 13 33 24 -26 22 -114z m9858 -14 c-3 -8 -6 -5 -6 6 -1 11 2
17 5 13 3 -3 4 -12 1 -19z m390 -40 c-3 -8 -6 -5 -6 6 -1 11 2 17 5 13 3 -3 4
-12 1 -19z m-10249 -132 c1 -25 -3 -48 -9 -51 -7 -5 -10 4 -8 27 2 18 0 38 -4
45 -4 6 -1 14 5 16 7 3 13 6 14 6 0 1 2 -19 2 -43z m10249 -78 c-3 -7 -5 -2
-5 12 0 14 2 19 5 13 2 -7 2 -19 0 -25z m3 -73 c0 -5 -5 -3 -10 5 -5 8 -10 20
-10 25 0 6 5 3 10 -5 5 -8 10 -19 10 -25z m-250 10 c0 -8 -4 -15 -10 -15 -5 0
-7 7 -4 15 4 8 8 15 10 15 2 0 4 -7 4 -15z m-10193 -37 c-3 -8 -6 -5 -6 6 -1
11 2 17 5 13 3 -3 4 -12 1 -19z m193 -38 c0 -11 -4 -20 -9 -20 -5 0 -11 9 -14
20 -3 13 0 20 9 20 8 0 14 -9 14 -20z m-270 -50 c0 -5 -4 -10 -10 -10 -5 0
-10 5 -10 10 0 6 5 10 10 10 6 0 10 -4 10 -10z m270 -146 c0 -8 -4 -12 -10 -9
-5 3 -10 10 -10 16 0 5 5 9 10 9 6 0 10 -7 10 -16z m13490 -474 c0 -5 -4 -10
-10 -10 -5 0 -10 5 -10 10 0 6 5 10 10 10 6 0 10 -4 10 -10z m-3690 -270 c0
-5 -4 -10 -10 -10 -5 0 -10 5 -10 10 0 6 5 10 10 10 6 0 10 -4 10 -10z m-3230
-240 c0 -5 -4 -10 -10 -10 -5 0 -10 5 -10 10 0 6 5 10 10 10 6 0 10 -4 10 -10z"/>
<path d="M11446 8397 c3 -10 9 -15 12 -12 3 3 0 11 -7 18 -10 9 -11 8 -5 -6z"/>
<path d="M7812 8366 c-16 -36 -16 -36 12 -36 27 0 43 27 26 44 -7 7 -11 7 -10
1 5 -26 -3 -36 -9 -11 l-6 30 -13 -28z"/>
<path d="M11427 8373 c-3 -5 -1 -17 4 -28 4 -11 8 -14 8 -6 1 11 4 11 16 1 9
-8 12 -16 6 -19 -14 -9 -25 -61 -13 -61 5 0 12 -9 15 -20 3 -11 1 -20 -4 -20
-12 0 -6 -37 9 -52 9 -9 12 -8 12 6 0 9 4 15 9 11 6 -3 9 3 8 14 -1 13 -5 17
-12 11 -12 -10 -12 32 0 61 3 10 1 20 -6 25 -8 5 -11 2 -7 -8 4 -8 1 -15 -7
-15 -13 0 -10 22 7 44 16 21 0 52 -24 45 -14 -3 -19 -1 -14 6 4 7 5 12 2 12
-3 0 -7 -3 -9 -7z"/>
<path d="M7801 8292 c-11 -27 -12 -35 -1 -45 10 -9 11 -9 6 1 -4 6 -2 12 4 12
6 0 8 5 4 12 -5 7 -3 8 5 4 7 -5 10 -15 7 -23 -4 -8 -1 -11 5 -8 6 4 8 13 5
21 -3 8 -1 14 4 14 6 0 10 4 10 10 0 5 -6 7 -14 4 -9 -3 -16 2 -18 13 -2 13
-7 10 -17 -15z"/>
<path d="M7815 8221 c-3 -6 -10 -9 -15 -6 -5 3 -11 1 -14 -4 -7 -11 23 -86 31
-78 3 4 2 14 -2 24 -10 22 -6 46 8 55 6 4 9 10 5 13 -3 4 -9 1 -13 -4z"/>
<path d="M7776 8144 c-3 -8 -1 -24 4 -34 13 -24 13 -63 0 -55 -6 4 -7 11 -4
17 4 6 2 8 -4 4 -6 -3 -10 -15 -9 -24 1 -13 7 -17 23 -14 18 3 21 9 18 29 -3
14 0 31 7 39 11 14 2 19 -24 15 -5 -1 -6 8 -2 19 7 23 0 27 -9 4z"/>
<path d="M11490 8149 c0 -5 -4 -8 -9 -5 -5 3 -12 -1 -15 -10 -8 -20 -8 -24 2
-23 26 4 34 -1 22 -16 -7 -8 -10 -22 -6 -30 3 -9 2 -13 -4 -10 -6 3 -10 1 -10
-4 0 -6 7 -11 15 -11 8 0 15 -5 15 -11 0 -5 -4 -8 -8 -5 -11 7 -8 -52 3 -62 4
-4 6 0 2 9 -4 13 -1 16 15 11 13 -3 16 -7 8 -12 -9 -6 -9 -9 -1 -11 8 -3 5
-12 -8 -25 -17 -19 -18 -24 -6 -41 8 -11 12 -35 11 -55 -2 -24 1 -35 11 -35 8
0 12 7 8 16 -4 12 -2 12 9 -2 13 -17 14 -16 12 7 0 13 -4 22 -7 20 -13 -7 -19
27 -9 46 13 24 13 30 -1 30 -5 0 -8 -4 -5 -9 3 -5 0 -11 -8 -14 -15 -6 -11 28
7 50 6 9 4 24 -7 47 -18 39 -20 50 -6 41 11 -7 2 23 -12 41 -4 6 -6 19 -2 28
3 9 2 16 -4 16 -6 0 -8 9 -5 20 3 11 3 20 -1 20 -3 0 -6 -5 -6 -11z"/>
<path d="M7780 8019 c0 -5 5 -7 10 -4 6 3 10 8 10 11 0 2 -4 4 -10 4 -5 0 -10
-5 -10 -11z"/>
<path d="M7759 8008 c-5 -17 -4 -48 3 -48 11 0 10 -27 -1 -32 -4 -1 -11 -14
-15 -28 -3 -14 -3 -19 0 -12 8 18 23 15 19 -5 -1 -10 0 -12 2 -5 3 7 8 10 12
7 5 -2 6 11 4 30 -2 20 2 45 8 56 9 17 8 23 -2 30 -14 8 -28 12 -30 7z"/>
<path d="M7733 7834 c-8 -22 15 -43 27 -24 8 12 10 13 10 1 0 -8 2 -12 5 -9 3
3 1 16 -4 29 -7 16 -10 19 -10 7 -1 -9 -6 -20 -12 -24 -8 -4 -9 0 -4 15 7 24
-3 29 -12 5z"/>
<path d="M7734 7772 c-10 -15 -8 -18 7 -19 13 -1 19 5 19 18 0 24 -12 25 -26
1z"/>
<path d="M11530 7771 c0 -5 -3 -18 -7 -28 -4 -13 -1 -12 15 6 26 29 27 31 7
31 -8 0 -15 -4 -15 -9z"/>
<path d="M11553 7746 c-9 -11 -8 -15 6 -19 14 -3 17 0 14 14 -6 22 -5 22 -20
5z"/>
<path d="M7715 7730 c-3 -6 1 -7 10 -4 13 6 13 0 -4 -30 -26 -45 -26 -49 -2
-35 11 8 17 20 14 33 -4 18 -3 19 7 6 10 -13 11 -13 6 2 -3 10 2 22 12 27 14
9 13 10 -10 11 -15 0 -30 -4 -33 -10z"/>
<path d="M11547 7713 c-4 -3 -7 -11 -7 -17 0 -6 5 -4 11 4 9 12 10 11 6 -7 -5
-23 17 -63 28 -52 6 6 -20 79 -28 79 -2 0 -7 -3 -10 -7z"/>
<path d="M7746 7665 c-9 -26 -7 -32 5 -12 6 10 9 21 6 23 -2 3 -7 -2 -11 -11z"/>
<path d="M11530 7672 c0 -4 7 -18 16 -30 9 -13 13 -31 9 -43 -4 -11 -1 -26 5
-34 7 -8 10 -21 7 -30 -4 -8 0 -27 8 -41 8 -15 11 -32 8 -37 -3 -6 -1 -7 5 -3
7 4 12 1 12 -9 0 -9 -4 -14 -9 -10 -19 11 -21 -15 -5 -41 11 -16 14 -28 7 -32
-6 -4 -7 -15 -2 -27 4 -11 8 -18 8 -15 1 3 5 20 10 38 6 20 6 30 0 27 -5 -4
-9 -1 -9 4 0 6 7 11 15 11 19 0 19 2 -4 44 -13 22 -16 36 -9 38 6 2 8 13 3 27
-5 16 -10 20 -15 11 -5 -8 -10 -9 -14 -2 -3 6 -2 13 4 17 6 4 8 11 5 16 -4 5
-1 9 4 9 6 0 11 5 11 11 0 6 -9 9 -20 6 -17 -4 -20 -2 -15 14 4 11 -1 36 -10
55 -15 33 -25 43 -25 26z m86 -255 c4 -4 0 -7 -9 -7 -9 0 -18 4 -21 9 -7 10
20 9 30 -2z"/>
<path d="M7695 7600 c-3 -5 -2 -17 3 -26 6 -11 11 -13 16 -5 4 6 3 11 -3 11
-6 0 -8 7 -5 15 7 17 -1 20 -11 5z"/>
<path d="M7737 7603 c-4 -3 -7 -11 -7 -17 0 -6 5 -5 12 2 6 6 9 14 7 17 -3 3
-9 2 -12 -2z"/>
<path d="M7710 7526 c0 -22 -3 -26 -13 -18 -10 8 -13 6 -14 -9 -1 -11 3 -17 9
-13 7 4 9 -9 7 -39 -2 -25 -1 -43 3 -41 3 2 9 -2 11 -8 3 -7 4 6 1 30 -2 24
-1 49 3 55 12 19 13 40 3 56 -7 12 -9 9 -10 -13z"/>
<path d="M7677 7433 c-4 -3 -7 -13 -7 -22 1 -13 3 -13 11 2 11 19 8 33 -4 20z"/>
<path d="M7666 7361 c-3 -5 3 -11 14 -14 13 -3 20 0 20 9 0 15 -26 19 -34 5z"/>
<path d="M11626 7357 c3 -8 1 -18 -5 -22 -6 -3 -10 -16 -10 -28 1 -17 2 -18 6
-4 2 9 8 17 12 17 10 0 11 39 0 45 -5 3 -6 0 -3 -8z"/>
<path d="M7656 7333 c-12 -12 -6 -19 18 -18 13 0 26 2 28 5 2 3 1 4 -1 3 -2
-1 -11 2 -21 7 -10 5 -20 6 -24 3z"/>
<path d="M7653 7274 c-13 -29 -9 -45 10 -43 9 0 9 2 0 6 -7 2 -13 9 -13 14 0
4 6 6 14 3 10 -4 12 2 9 20 -3 14 -6 26 -7 26 0 0 -6 -12 -13 -26z"/>
<path d="M11630 7270 c0 -5 -6 -7 -14 -4 -10 4 -14 0 -14 -13 2 -19 48 -30 48
-11 0 5 -5 6 -11 2 -8 -4 -9 0 -4 15 3 11 4 21 1 21 -3 0 -6 -4 -6 -10z"/>
<path d="M7658 7193 c4 -24 16 -30 27 -14 3 5 1 12 -5 16 -6 4 -8 10 -6 14 3
4 -1 8 -8 8 -8 0 -11 -9 -8 -24z"/>
<path d="M11620 7203 c0 -15 2 -16 10 -3 8 12 10 11 10 -6 0 -12 6 -24 14 -27
11 -5 11 -1 -1 24 -16 32 -33 38 -33 12z"/>
<path d="M11610 7173 c0 -13 17 -26 38 -29 6 -1 10 2 6 7 -3 5 -9 7 -14 4 -5
-3 -13 3 -19 12 -6 10 -11 13 -11 6z"/>
<path d="M7635 7160 c-3 -5 -2 -10 4 -10 5 0 11 -9 13 -20 3 -18 4 -17 15 6 7
15 10 24 6 20 -3 -3 -12 -1 -19 5 -8 7 -14 7 -19 -1z"/>
<path d="M11640 7115 c-1 -5 -3 -19 -5 -29 -4 -22 20 -50 35 -41 5 3 10 12 10
19 0 17 -39 65 -40 51z m30 -52 c0 -11 -3 -11 -13 -1 -8 7 -14 18 -14 25 0 9
4 10 14 2 7 -6 13 -18 13 -26z"/>
<path d="M7625 7091 c-8 -26 0 -40 23 -38 18 1 24 30 8 34 -5 1 -12 7 -16 13
-5 9 -10 6 -15 -9z m20 -10 c3 -5 1 -12 -5 -16 -5 -3 -10 1 -10 9 0 18 6 21
15 7z"/>
<path d="M7630 7008 c0 -12 3 -18 7 -14 11 10 12 36 2 36 -5 0 -9 -10 -9 -22z"/>
<path d="M11661 7022 c0 -7 -5 -11 -10 -8 -5 3 -8 -5 -8 -19 0 -21 1 -22 14
-9 8 8 12 22 10 32 -3 9 -5 11 -6 4z"/>
<path d="M7607 6994 c-11 -12 -8 -26 4 -18 8 4 9 -1 4 -17 -6 -21 -6 -22 6 -8
8 9 21 19 29 22 10 4 8 6 -7 6 -12 1 -23 6 -25 12 -2 5 -7 7 -11 3z"/>
<path d="M11686 6987 c3 -10 9 -15 12 -12 3 3 0 11 -7 18 -10 9 -11 8 -5 -6z"/>
<path d="M11660 6976 c0 -2 8 -10 18 -17 15 -13 16 -12 3 4 -13 16 -21 21 -21
13z"/>
<path d="M11655 6921 c-6 -11 9 -23 19 -14 9 9 7 23 -3 23 -6 0 -12 -4 -16 -9z"/>
<path d="M7626 6908 c3 -4 9 -8 15 -8 5 0 9 4 9 8 0 5 -7 9 -15 9 -8 0 -12 -4
-9 -9z"/>
<path d="M7595 6889 c-9 -14 -2 -20 14 -10 8 6 9 11 3 15 -6 3 -14 1 -17 -5z"/>
<path d="M11681 6873 c1 -17 3 -21 6 -10 2 9 9 17 14 17 6 0 7 5 4 10 -12 19
-25 10 -24 -17z"/>
<path d="M7595 6834 c-20 -31 -14 -53 14 -51 11 0 17 5 14 10 -3 4 -12 6 -20
3 -9 -4 -13 -1 -11 6 3 7 10 13 16 13 5 0 14 4 19 9 5 5 2 6 -6 1 -10 -6 -12
-2 -6 14 9 28 1 27 -20 -5z"/>
<path d="M11673 6804 c0 -16 2 -21 7 -14 4 7 9 8 11 2 2 -5 12 -6 24 -1 19 7
19 8 -2 8 -14 1 -23 7 -23 16 0 8 -4 15 -9 15 -5 0 -8 -12 -8 -26z"/>
<path d="M11688 6747 c-3 -15 -2 -30 3 -32 12 -8 16 8 9 35 l-6 25 -6 -28z"/>
<path d="M7576 6733 c-10 -14 -15 -27 -12 -30 3 -3 8 1 12 10 3 9 12 13 19 11
18 -7 26 8 11 22 -9 8 -16 4 -30 -13z"/>
<path d="M11723 6733 c4 -3 2 -12 -3 -18 -7 -9 -6 -14 3 -18 10 -4 15 2 15 19
0 13 -5 24 -11 24 -6 0 -7 -3 -4 -7z"/>
<path d="M1872 9063 c1 -37 1 -37 5 -5 4 32 4 32 62 32 l58 0 -4 -162 c-3 -90
-8 -227 -11 -306 l-7 -142 45 0 45 0 -6 167 c-4 93 -7 227 -8 299 -1 130 -1
131 -26 142 -14 7 -55 12 -90 12 l-65 0 2 -37z"/>
<path d="M1864 8785 c0 -49 1 -71 3 -48 2 23 2 64 0 90 -2 26 -3 8 -3 -42z"/>
<path d="M1852 8510 c0 -19 2 -27 5 -17 2 9 2 25 0 35 -3 9 -5 1 -5 -18z"/>
<path d="M19070 1812 c0 -5 7 -9 15 -9 8 0 12 4 9 9 -3 4 -9 8 -15 8 -5 0 -9
-4 -9 -8z"/>
<path d="M18574 1769 c-3 -6 -2 -15 3 -20 5 -5 9 -1 10 11 2 22 -2 25 -13 9z"/>
<path d="M18776 1762 c-2 -4 -1 -14 5 -22 7 -12 9 -10 9 8 0 23 -5 28 -14 14z"/>
<path d="M18320 1756 c0 -2 7 -7 16 -10 8 -3 12 -2 9 4 -6 10 -25 14 -25 6z"/>
<path d="M18620 1740 c-6 -11 -8 -20 -6 -20 3 0 10 9 16 20 6 11 8 20 6 20 -3
0 -10 -9 -16 -20z"/>
<path d="M18150 1742 c0 -5 7 -9 15 -9 8 0 12 4 9 9 -3 4 -9 8 -15 8 -5 0 -9
-4 -9 -8z"/>
<path d="M18119 1733 c-1 -5 -1 -17 0 -28 2 -17 0 -17 -8 -5 -9 13 -11 13 -11
-2 0 -22 13 -23 29 -4 8 10 9 16 1 21 -6 3 -8 11 -5 16 4 5 4 9 1 9 -3 0 -7
-3 -7 -7z"/>
<path d="M18314 1729 c-3 -6 -2 -15 3 -20 5 -5 9 -1 10 11 2 22 -2 25 -13 9z"/>
<path d="M18513 1730 c1 -5 -13 -17 -32 -27 -37 -19 -51 -40 -27 -40 8 0 12 6
8 15 -3 10 -1 13 6 8 7 -4 12 -3 12 3 0 5 10 11 22 13 23 3 39 38 19 38 -6 0
-10 -4 -8 -10z"/>
<path d="M18948 1733 c7 -3 16 -2 19 1 4 3 -2 6 -13 5 -11 0 -14 -3 -6 -6z"/>
<path d="M18568 1723 c7 -3 16 -2 19 1 4 3 -2 6 -13 5 -11 0 -14 -3 -6 -6z"/>
<path d="M18741 1714 c0 -11 3 -14 6 -6 3 7 2 16 -1 19 -3 4 -6 -2 -5 -13z"/>
<path d="M17691 1711 c-8 -6 -9 -11 -3 -15 6 -3 14 -1 17 5 9 14 2 20 -14 10z"/>
<path d="M18960 1710 c-13 -8 -12 -10 3 -10 9 0 17 5 17 10 0 12 -1 12 -20 0z"/>
<path d="M17460 1700 c20 -13 33 -13 25 0 -3 6 -14 10 -23 10 -15 0 -15 -2 -2
-10z"/>
<path d="M17967 1699 c7 -7 15 -10 18 -7 3 3 -2 9 -12 12 -14 6 -15 5 -6 -5z"/>
<path d="M18050 1698 c0 -9 5 -20 10 -23 13 -8 13 5 0 25 -8 13 -10 13 -10 -2z"/>
<path d="M18856 1695 c-3 -8 -3 -15 0 -15 3 0 12 7 20 15 13 13 13 15 1 15 -8
0 -17 -7 -21 -15z"/>
<path d="M17851 1691 c-8 -5 -9 -11 -3 -15 5 -3 12 1 16 9 6 17 6 18 -13 6z"/>
<path d="M18906 1681 c-14 -15 -38 -20 -133 -25 -84 -6 -118 -4 -123 4 -5 8
-12 7 -24 -5 -16 -16 -18 -16 -32 1 -12 17 -13 17 -8 2 5 -14 1 -18 -17 -18
-13 0 -112 -6 -219 -14 -107 -8 -202 -14 -210 -15 -8 0 -50 -3 -93 -7 -68 -6
-80 -5 -98 12 -21 19 -22 19 -15 -3 7 -21 4 -23 -29 -23 -23 0 -38 5 -41 15
-6 14 -8 13 -19 -2 -10 -14 -29 -18 -79 -20 -36 -1 -66 2 -66 8 0 5 -5 9 -11
9 -5 0 -8 -4 -4 -9 7 -13 -36 -20 -155 -26 -52 -2 -126 -8 -163 -11 -59 -6
-70 -4 -82 12 -12 15 -14 15 -9 2 7 -20 -18 -29 -78 -28 -24 0 -67 -2 -95 -6
-36 -4 -58 -3 -68 6 -9 8 -15 8 -15 2 0 -16 -61 -26 -70 -12 -6 9 -9 9 -13 -1
-4 -11 -7 -12 -18 -1 -9 9 -10 12 -1 12 7 0 12 6 12 13 -1 6 -9 2 -20 -11 -20
-24 -28 -25 -195 -37 -49 -3 -110 -8 -134 -11 -25 -3 -41 -2 -38 4 4 5 0 9 -8
9 -8 0 -11 -5 -8 -10 4 -6 -6 -8 -27 -4 -18 4 -38 3 -44 -2 -6 -4 -51 -11 -99
-14 -74 -4 -86 -3 -76 9 8 9 8 14 1 14 -6 0 -15 -6 -19 -14 -10 -16 -110 -29
-118 -15 -4 5 -1 9 4 9 6 0 11 6 11 13 -1 6 -9 2 -19 -10 -15 -18 -32 -22
-110 -27 -78 -5 -91 -3 -91 10 0 8 -5 12 -10 9 -6 -4 -8 -10 -5 -15 7 -12 -26
-21 -72 -20 -21 0 -55 -3 -75 -6 -27 -4 -38 -3 -38 6 0 9 -4 9 -13 2 -14 -12
-67 -19 -204 -27 -71 -4 -93 -2 -93 7 0 9 -3 8 -10 -2 -9 -13 -10 -13 -10 0
-1 12 -3 11 -14 -3 -11 -14 -27 -18 -68 -18 -29 0 -69 -1 -88 -3 -136 -14
-234 -16 -242 -4 -6 10 -8 8 -8 -4 0 -14 -7 -17 -34 -15 -31 2 -33 3 -20 19
10 11 12 18 5 23 -6 3 -11 1 -11 -5 0 -17 -26 -40 -45 -40 -12 0 -15 5 -11 18
4 10 -2 7 -14 -8 -16 -20 -22 -22 -29 -11 -6 9 -10 10 -12 2 -3 -8 -46 -13
-131 -14 -69 -1 -124 -5 -121 -9 2 -5 -5 -8 -16 -8 -12 0 -21 5 -21 11 0 5 4
7 10 4 6 -4 7 1 3 12 -9 25 -24 43 -36 43 -6 0 -3 -6 6 -12 11 -9 15 -21 11
-35 -5 -19 -14 -23 -48 -25 -85 -4 -156 -9 -321 -23 -180 -14 -311 -24 -410
-30 -33 -2 -89 -7 -125 -10 -36 -3 -105 -8 -155 -10 -49 -2 -97 -6 -105 -9 -8
-2 -50 -6 -92 -9 -65 -3 -78 -1 -81 12 -4 14 -5 14 -6 -1 -1 -12 -10 -17 -28
-17 -45 1 -176 -10 -202 -16 -14 -4 -27 -1 -32 6 -6 10 -11 10 -23 0 -9 -8
-32 -12 -55 -9 -22 2 -38 1 -35 -3 2 -3 -24 -7 -58 -8 -34 -1 -64 -3 -67 -5
-3 -2 -67 -7 -141 -11 -74 -4 -148 -9 -165 -10 -213 -18 -228 -17 -221 2 4 13
1 11 -13 -6 -17 -22 -23 -24 -80 -18 -36 3 -61 1 -61 -4 0 -6 -32 -9 -74 -7
-41 2 -72 0 -70 -3 2 -3 -20 -7 -49 -8 -29 -1 -88 -4 -132 -8 -44 -3 -112 -6
-152 -7 -39 -1 -69 -4 -66 -8 2 -5 -5 -8 -16 -8 -11 0 -23 5 -26 10 -5 8 -11
7 -21 -1 -11 -9 -14 -7 -14 10 0 11 -5 21 -11 21 -6 0 -9 -7 -5 -15 3 -8 2
-14 -2 -13 -4 1 -16 -3 -27 -9 -11 -6 -51 -10 -88 -9 -37 1 -67 -2 -67 -6 0
-8 -45 -10 -223 -11 -42 0 -64 -3 -55 -8 8 -5 -10 -9 -47 -10 -86 -2 -164 -7
-208 -14 -30 -4 -37 -3 -31 7 6 10 4 10 -7 2 -8 -6 -42 -14 -76 -17 -58 -5
-63 -4 -63 15 0 11 -8 22 -20 25 -11 3 -20 12 -20 19 0 8 -4 14 -10 14 -6 0
-5 -9 1 -24 7 -14 17 -22 25 -19 9 3 14 -2 14 -16 0 -18 -6 -22 -32 -22 -60 0
-183 -9 -212 -16 -19 -4 -31 -1 -37 8 -6 10 -9 10 -9 2 0 -17 -27 -17 -33 0
-4 9 -6 9 -6 0 -1 -20 -58 -16 -70 4 -8 15 -12 16 -22 5 -10 -9 -10 -12 -1
-12 7 0 12 -4 12 -10 0 -5 -16 -10 -35 -10 -19 0 -35 5 -35 11 0 6 7 8 18 4
14 -5 15 -4 4 7 -11 11 -16 10 -28 -6 -8 -11 -14 -17 -14 -13 0 4 -9 3 -20 -3
-24 -13 -26 -3 -3 22 9 10 12 18 6 18 -5 0 -16 -11 -23 -25 -11 -21 -21 -26
-54 -25 -45 1 -133 -6 -210 -16 -27 -3 -46 -2 -43 2 3 5 -6 10 -19 10 -13 1
-21 -2 -18 -7 3 -5 -2 -9 -10 -9 -9 0 -16 5 -16 11 0 6 -7 3 -16 -5 -18 -19
-54 -21 -54 -3 0 9 -2 9 -8 1 -11 -18 -106 -22 -126 -5 -14 12 -16 12 -11 -2
5 -13 -8 -16 -87 -21 -51 -3 -100 -5 -108 -5 -8 0 -28 -3 -44 -7 -23 -6 -27
-4 -21 7 7 11 6 12 -6 3 -8 -6 -42 -14 -76 -17 -52 -5 -64 -3 -72 11 -10 16
-10 16 -11 -1 0 -14 -7 -18 -27 -16 -16 1 -36 -2 -46 -6 -10 -4 -47 -5 -83 -2
-35 2 -64 1 -64 -3 0 -5 -29 -10 -64 -12 -35 -1 -62 0 -59 4 2 5 -3 8 -12 8
-9 0 -13 -4 -10 -10 11 -18 -4 -11 -26 12 l-21 23 7 -22 c4 -14 2 -23 -4 -23
-6 0 -11 4 -11 8 0 4 -9 8 -20 9 -11 1 -18 -2 -15 -7 8 -14 -48 -21 -181 -23
-67 -1 -120 -5 -117 -9 7 -13 -52 -9 -65 4 -8 8 -12 9 -12 1 0 -11 -29 -16
-167 -27 -53 -5 -62 -3 -66 12 -4 16 -5 16 -6 0 -1 -13 -10 -18 -33 -19 -18 0
-73 -4 -123 -9 -49 -4 -94 -4 -99 1 -5 4 -17 4 -27 -1 -10 -6 -86 -15 -169
-22 -121 -9 -153 -9 -159 1 -7 10 -9 10 -14 -1 -3 -9 -22 -15 -48 -16 -24 -1
-74 -5 -111 -8 -54 -5 -68 -3 -68 7 0 9 -3 10 -8 4 -10 -14 -28 -18 -97 -20
-33 -1 -69 -4 -80 -7 -11 -4 -73 -10 -138 -13 -94 -5 -117 -4 -117 7 -1 9 -4
8 -13 -3 -16 -22 -93 -24 -101 -3 -3 9 -11 12 -17 8 -8 -5 -8 -9 1 -14 18 -11
-43 -19 -178 -25 -62 -3 -118 -7 -123 -11 -5 -3 -17 0 -26 8 -12 9 -15 9 -9 1
4 -8 1 -13 -8 -13 -9 0 -16 5 -16 10 0 6 -5 10 -11 10 -5 0 -7 -4 -4 -10 3 -5
-4 -10 -17 -11 -13 0 -52 -3 -88 -6 -36 -3 -97 -6 -137 -8 -40 -2 -76 -5 -80
-8 -4 -2 -35 -5 -68 -6 -33 -1 -76 -4 -95 -6 -19 -3 -29 -2 -22 1 6 3 9 10 6
15 -4 6 -11 6 -19 -1 -26 -22 -159 -37 -170 -19 -6 8 -10 7 -16 -2 -5 -9 -34
-15 -81 -17 -40 -2 -89 -5 -108 -7 -136 -13 -220 -15 -220 -6 0 6 -5 11 -11
11 -5 0 -8 -4 -5 -9 6 -8 -15 -21 -35 -21 -12 0 -12 27 1 35 6 3 7 -1 4 -9 -3
-9 -1 -16 5 -16 13 0 15 36 2 44 -5 4 -15 -8 -23 -25 -11 -26 -17 -30 -43 -26
-16 3 -39 9 -49 13 -14 5 -17 4 -12 -4 10 -17 -5 -20 -111 -26 -77 -4 -91 -2
-86 10 4 10 0 12 -11 8 -9 -3 -14 -10 -11 -14 3 -4 -5 -8 -18 -9 -12 -1 -40
-3 -62 -6 -22 -2 -83 -7 -135 -11 -52 -3 -136 -9 -187 -14 -50 -4 -115 -6
-142 -5 -28 0 -51 -2 -51 -6 0 -4 -25 -7 -55 -8 -31 0 -72 -3 -92 -7 -26 -5
-34 -4 -29 5 4 6 3 11 -3 11 -5 0 -11 -4 -13 -8 -1 -5 -29 -12 -62 -16 -53 -6
-58 -5 -52 11 5 16 5 17 -7 2 -14 -19 -105 -30 -111 -14 -3 5 -5 4 -5 -2 -1
-8 -16 -13 -40 -13 -22 0 -41 5 -44 13 -3 9 -8 7 -18 -5 -11 -13 -39 -18 -146
-22 -72 -3 -133 -2 -135 3 -5 13 -48 24 -48 12 0 -6 3 -10 8 -10 17 3 32 -2
32 -10 0 -5 -34 -11 -75 -13 -46 -2 -75 1 -75 7 0 6 -4 5 -8 -2 -10 -16 -102
-13 -102 4 0 7 -4 13 -9 13 -5 0 -8 -8 -7 -17 1 -15 -8 -18 -62 -18 -34 0 -62
-3 -62 -8 0 -4 -29 -7 -64 -6 -35 1 -70 -2 -77 -6 -9 -6 -11 -3 -6 8 3 10 2
17 -3 17 -6 0 -10 -6 -10 -14 0 -11 -13 -15 -47 -15 -27 0 -72 -3 -101 -6 -39
-4 -52 -3 -52 7 0 9 -2 10 -8 1 -7 -12 -64 -20 -208 -28 -49 -3 -97 -8 -108
-11 -12 -4 -16 -2 -12 5 4 6 2 19 -4 28 -7 12 -10 13 -7 3 6 -25 -16 -37 -81
-42 -45 -5 -60 -3 -55 5 5 9 3 9 -8 1 -13 -11 -171 -26 -394 -40 -44 -2 -143
-9 -219 -16 -104 -8 -144 -8 -158 1 -26 16 -45 14 -22 -4 17 -13 13 -15 -51
-16 -38 -1 -104 -4 -145 -7 -41 -3 -107 -6 -147 -6 -39 -1 -69 -4 -66 -8 2 -5
-22 -9 -54 -9 -32 -1 -84 -3 -116 -5 -35 -2 -55 0 -52 6 9 14 -11 12 -27 -2
-7 -7 -31 -14 -53 -16 -30 -2 -36 0 -25 7 13 9 13 11 -2 11 -9 0 -19 -6 -22
-12 -5 -10 -7 -10 -12 -1 -4 10 -9 9 -21 -3 -11 -10 -36 -15 -82 -15 -36 -1
-98 -1 -138 -2 l-71 -2 -1 -142 -2 -143 9581 0 9580 0 -2 842 c-2 555 -6 842
-13 842 -5 -1 -58 -5 -117 -9 -80 -5 -108 -3 -108 5 0 7 7 9 16 6 8 -3 12 -2
9 4 -9 15 -20 12 -39 -9z"/>
<path d="M18665 1680 c-3 -6 1 -7 9 -4 18 7 21 14 7 14 -6 0 -13 -4 -16 -10z"/>
<path d="M17010 1671 c0 -5 5 -13 10 -16 6 -3 10 -2 10 4 0 5 -4 13 -10 16 -5
3 -10 2 -10 -4z"/>
<path d="M17225 1670 c4 -6 11 -8 16 -5 14 9 11 15 -7 15 -8 0 -12 -5 -9 -10z"/>
<path d="M18176 1665 c-10 -7 -16 -18 -15 -23 2 -6 12 1 22 14 21 27 19 29 -7
9z"/>
<path d="M17393 1662 c-7 -4 -9 -13 -4 -21 6 -9 10 -7 14 8 3 12 4 21 4 21 -1
0 -7 -4 -14 -8z"/>
<path d="M17590 1656 c0 -8 5 -18 10 -21 6 -3 10 1 10 9 0 8 -4 18 -10 21 -5
3 -10 -1 -10 -9z"/>
<path d="M17988 1663 c7 -3 16 -2 19 1 4 3 -2 6 -13 5 -11 0 -14 -3 -6 -6z"/>
<path d="M18126 1657 c3 -10 9 -15 12 -12 3 3 0 11 -7 18 -10 9 -11 8 -5 -6z"/>
<path d="M17430 1656 c0 -2 7 -6 15 -10 8 -3 15 -1 15 4 0 6 -7 10 -15 10 -8
0 -15 -2 -15 -4z"/>
<path d="M17686 1652 c5 -4 12 -11 15 -15 3 -5 9 -2 12 5 3 9 -3 14 -15 15
-11 1 -16 -1 -12 -5z"/>
<path d="M17130 1625 c0 -8 4 -15 10 -15 5 0 7 7 4 15 -4 8 -8 15 -10 15 -2 0
-4 -7 -4 -15z"/>
<path d="M17564 1629 c-4 -7 -3 -9 4 -5 5 3 13 0 15 -6 4 -9 6 -10 6 -1 1 17
-16 25 -25 12z"/>
<path d="M16926 1603 c8 -35 23 -63 24 -45 0 6 8 12 17 12 14 0 14 3 5 12 -10
10 -15 10 -23 -2 -8 -11 -9 -7 -6 18 2 22 -1 32 -10 32 -10 0 -12 -8 -7 -27z"/>
<path d="M16978 1623 c7 -3 16 -2 19 1 4 3 -2 6 -13 5 -11 0 -14 -3 -6 -6z"/>
<path d="M17050 1619 c0 -5 5 -7 10 -4 6 3 10 8 10 11 0 2 -4 4 -10 4 -5 0
-10 -5 -10 -11z"/>
<path d="M17285 1620 c-4 -6 -4 -14 -1 -17 3 -4 6 0 6 8 1 10 5 8 15 -5 8 -11
15 -15 15 -9 0 18 -27 36 -35 23z"/>
<path d="M18035 1620 c3 -5 8 -10 11 -10 2 0 4 5 4 10 0 6 -5 10 -11 10 -5 0
-7 -4 -4 -10z"/>
<path d="M17770 1613 c5 -2 8 -9 4 -14 -3 -5 0 -9 6 -9 15 0 7 23 -8 26 -7 1
-8 0 -2 -3z"/>
<path d="M16070 1606 c0 -2 7 -6 15 -10 8 -3 15 -1 15 4 0 6 -7 10 -15 10 -8
0 -15 -2 -15 -4z"/>
<path d="M16980 1599 c0 -5 5 -7 10 -4 6 3 10 8 10 11 0 2 -4 4 -10 4 -5 0
-10 -5 -10 -11z"/>
<path d="M17373 1590 c-8 -12 -9 -21 -3 -25 6 -3 10 1 10 9 0 9 7 16 16 16 8
0 12 5 9 10 -9 15 -19 12 -32 -10z"/>
<path d="M16469 1594 c-1 -5 -1 -13 0 -18 1 -5 -4 -13 -11 -17 -16 -10 -5 -21
14 -14 8 3 14 15 13 25 -1 21 -14 40 -16 24z"/>
<path d="M16667 1589 c7 -7 15 -10 18 -7 3 3 -2 9 -12 12 -14 6 -15 5 -6 -5z"/>
<path d="M17231 1584 c0 -11 3 -14 6 -6 3 7 2 16 -1 19 -3 4 -6 -2 -5 -13z"/>
<path d="M16310 1570 c-6 -11 -8 -20 -6 -20 3 0 10 9 16 20 6 11 8 20 6 20 -3
0 -10 -9 -16 -20z"/>
<path d="M16732 1571 c7 -11 16 -17 20 -15 5 3 2 12 -6 20 -21 20 -28 17 -14
-5z"/>
<path d="M16905 1579 c-4 -6 -5 -12 -2 -15 2 -3 7 2 10 11 7 17 1 20 -8 4z"/>
<path d="M17040 1580 c0 -5 5 -10 11 -10 5 0 7 5 4 10 -3 6 -8 10 -11 10 -2 0
-4 -4 -4 -10z"/>
<path d="M17420 1580 c0 -5 5 -10 11 -10 5 0 7 5 4 10 -3 6 -8 10 -11 10 -2 0
-4 -4 -4 -10z"/>
<path d="M17500 1580 c0 -6 7 -10 15 -10 8 0 15 2 15 4 0 2 -7 6 -15 10 -8 3
-15 1 -15 -4z"/>
<path d="M15840 1572 c0 -5 7 -9 15 -9 8 0 15 4 15 9 0 4 -7 8 -15 8 -8 0 -15
-4 -15 -8z"/>
<path d="M16603 1561 c-11 -17 -10 -20 6 -18 12 1 17 7 13 19 -5 22 -5 22 -19
-1z"/>
<path d="M17200 1571 c0 -6 4 -12 8 -15 5 -3 9 1 9 9 0 8 -4 15 -9 15 -4 0 -8
-4 -8 -9z"/>
<path d="M15805 1561 c-3 -5 -1 -12 5 -16 6 -4 7 -11 4 -17 -4 -6 -10 -5 -15
3 -7 11 -9 10 -9 -3 0 -22 13 -23 29 -4 9 11 9 16 0 21 -8 6 -7 10 2 16 10 6
10 9 2 9 -6 0 -14 -4 -18 -9z"/>
<path d="M16005 1560 c-3 -5 1 -20 9 -32 9 -12 16 -17 16 -11 0 7 -4 14 -10
18 -5 3 -7 12 -3 20 6 17 -3 20 -12 5z"/>
<path d="M16816 1558 c3 -4 11 -5 19 -1 21 7 19 12 -4 10 -11 0 -18 -5 -15 -9z"/>
<path d="M17060 1560 c-8 -5 -11 -12 -7 -16 4 -4 13 -2 19 4 15 15 7 24 -12
12z"/>
<path d="M16205 1550 c-3 -5 -1 -10 4 -10 6 0 11 5 11 10 0 6 -2 10 -4 10 -3
0 -8 -4 -11 -10z"/>
<path d="M16240 1550 c-24 -15 -7 -18 20 -3 14 7 18 13 10 13 -8 0 -22 -4 -30
-10z"/>
<path d="M16511 1551 c-10 -6 -10 -10 -1 -16 13 -8 24 -1 19 14 -3 6 -10 7
-18 2z"/>
<path d="M15381 1541 c-7 -5 -9 -11 -4 -14 5 -3 15 -2 22 2 7 5 9 11 4 14 -5
3 -15 2 -22 -2z"/>
<path d="M15575 1541 c-3 -5 -2 -12 3 -15 5 -3 9 1 9 9 0 17 -3 19 -12 6z"/>
<path d="M16560 1535 c0 -8 4 -15 10 -15 5 0 7 7 4 15 -4 8 -8 15 -10 15 -2 0
-4 -7 -4 -15z"/>
<path d="M16960 1546 c0 -2 7 -7 16 -10 8 -3 12 -2 9 4 -6 10 -25 14 -25 6z"/>
<path d="M15340 1521 c-13 -26 -13 -64 0 -56 6 4 8 15 5 26 -4 13 -2 18 7 16
7 -2 10 -2 6 0 -4 2 -4 11 -1 19 8 21 -5 17 -17 -5z"/>
<path d="M15657 1529 c7 -7 15 -10 18 -7 3 3 -2 9 -12 12 -14 6 -15 5 -6 -5z"/>
<path d="M15740 1525 c0 -8 4 -15 10 -15 5 0 7 7 4 15 -4 8 -8 15 -10 15 -2 0
-4 -7 -4 -15z"/>
<path d="M16481 1524 c0 -11 3 -14 6 -6 3 7 2 16 -1 19 -3 4 -6 -2 -5 -13z"/>
<path d="M15542 1522 c-9 -6 -5 -15 15 -33 23 -20 25 -20 9 -2 -10 12 -15 27
-11 32 7 13 4 14 -13 3z"/>
<path d="M16620 1519 c0 -5 5 -7 10 -4 6 3 10 8 10 11 0 2 -4 4 -10 4 -5 0
-10 -5 -10 -11z"/>
<path d="M14915 1500 c4 -6 11 -8 16 -5 14 9 11 15 -7 15 -8 0 -12 -5 -9 -10z"/>
<path d="M15600 1501 c0 -5 5 -13 10 -16 6 -3 10 -2 10 4 0 5 -4 13 -10 16 -5
3 -10 2 -10 -4z"/>
<path d="M15682 1490 c-17 -27 -15 -35 4 -16 8 9 14 21 12 26 -2 6 -9 1 -16
-10z"/>
<path d="M16067 1493 c3 -7 8 -13 12 -13 4 0 8 6 8 13 0 8 -6 14 -13 14 -7 0
-10 -6 -7 -14z"/>
<path d="M15083 1492 c-7 -4 -9 -13 -4 -21 6 -9 10 -7 14 8 3 12 4 21 4 21 -1
0 -7 -4 -14 -8z"/>
<path d="M15280 1484 c0 -8 5 -12 10 -9 6 4 8 11 5 16 -9 14 -15 11 -15 -7z"/>
<path d="M15796 1484 c-10 -25 1 -29 14 -5 6 12 7 21 1 21 -5 0 -12 -7 -15
-16z"/>
<path d="M15128 1481 c7 -4 12 -14 10 -22 -2 -8 7 -15 20 -17 12 -2 22 2 22 8
0 7 -7 10 -15 6 -10 -4 -15 1 -15 14 0 12 -7 20 -17 20 -14 0 -15 -2 -5 -9z"/>
<path d="M14455 1470 c-3 -5 1 -10 9 -10 9 0 16 5 16 10 0 6 -4 10 -9 10 -6 0
-13 -4 -16 -10z"/>
<path d="M15465 1470 c-3 -5 -1 -10 4 -10 6 0 11 5 11 10 0 6 -2 10 -4 10 -3
0 -8 -4 -11 -10z"/>
<path d="M14820 1458 c0 -10 -5 -18 -12 -18 -6 0 -9 -3 -5 -6 3 -3 12 -2 21 3
10 6 12 13 6 23 -8 13 -10 12 -10 -2z"/>
<path d="M15625 1459 c-9 -14 -2 -20 14 -10 8 6 9 11 3 15 -6 3 -14 1 -17 -5z"/>
<path d="M14668 1453 c7 -3 16 -2 19 1 4 3 -2 6 -13 5 -11 0 -14 -3 -6 -6z"/>
<path d="M14740 1449 c0 -5 5 -7 10 -4 6 3 10 8 10 11 0 2 -4 4 -10 4 -5 0
-10 -5 -10 -11z"/>
<path d="M14907 1452 c-16 -7 -16 -9 -2 -27 9 -11 14 -14 10 -7 -4 7 -1 19 5
27 14 16 13 17 -13 7z"/>
<path d="M15260 1440 c0 -5 5 -10 10 -10 6 0 10 5 10 10 0 6 -4 10 -10 10 -5
0 -10 -4 -10 -10z"/>
<path d="M15362 1430 c7 -10 14 -18 15 -16 6 6 -9 36 -18 36 -5 0 -4 -9 3 -20z"/>
<path d="M13770 1430 c20 -13 33 -13 25 0 -3 6 -14 10 -23 10 -15 0 -15 -2 -2
-10z"/>
<path d="M14277 1416 c4 -18 0 -25 -14 -28 -10 -2 -13 -6 -8 -10 6 -4 22 3 35
14 14 11 19 17 13 13 -8 -4 -13 0 -13 9 0 8 -4 17 -9 20 -4 3 -6 -5 -4 -18z"/>
<path d="M15210 1431 c0 -6 4 -13 10 -16 6 -3 7 1 4 9 -7 18 -14 21 -14 7z"/>
<path d="M14156 1422 c-2 -4 -1 -14 3 -21 6 -10 10 -9 14 3 6 16 -8 32 -17 18z"/>
<path d="M14357 1415 c3 -8 9 -12 14 -9 12 7 11 11 -5 17 -10 4 -13 1 -9 -8z"/>
<path d="M15000 1420 c-9 -6 -10 -10 -3 -10 6 0 15 5 18 10 8 12 4 12 -15 0z"/>
<path d="M14460 1410 c13 -9 13 -12 -2 -21 -20 -11 -24 -29 -7 -29 5 0 7 5 4
10 -3 6 -2 10 4 10 5 0 14 -8 20 -17 5 -10 13 -14 18 -10 4 5 0 15 -10 22 -13
9 -15 15 -7 20 9 6 9 10 -1 16 -20 12 -37 11 -19 -1z"/>
<path d="M14617 1413 c-10 -10 -8 -23 4 -23 5 0 8 4 5 9 -4 5 0 12 6 14 7 3 8
6 2 6 -6 1 -14 -2 -17 -6z"/>
<path d="M15080 1405 c-7 -9 -8 -15 -2 -15 5 0 12 7 16 15 3 8 4 15 2 15 -2 0
-9 -7 -16 -15z"/>
<path d="M13530 1402 c0 -5 7 -9 15 -9 8 0 15 4 15 9 0 4 -7 8 -15 8 -8 0 -15
-4 -15 -8z"/>
<path d="M13992 1390 c-18 -29 -15 -38 4 -12 9 13 14 25 12 27 -2 2 -9 -5 -16
-15z"/>
<path d="M13497 1394 c-3 -3 -3 -13 0 -21 3 -8 0 -19 -8 -24 -9 -6 -10 -9 -2
-9 14 0 27 18 28 42 2 18 -6 23 -18 12z"/>
<path d="M13694 1389 c-3 -6 -2 -15 3 -20 5 -5 9 -1 10 11 2 22 -2 25 -13 9z"/>
<path d="M14400 1385 c-7 -9 -8 -15 -2 -15 5 0 12 7 16 15 3 8 4 15 2 15 -2 0
-9 -7 -16 -15z"/>
<path d="M13116 1373 c-6 -14 -5 -15 5 -6 7 7 10 15 7 18 -3 3 -9 -2 -12 -12z"/>
<path d="M13895 1380 c-3 -5 -1 -10 4 -10 6 0 11 5 11 10 0 6 -2 10 -4 10 -3
0 -8 -4 -11 -10z"/>
<path d="M13936 1381 c-4 -5 3 -7 14 -4 23 6 26 13 6 13 -8 0 -17 -4 -20 -9z"/>
<path d="M14102 1360 c0 -16 3 -30 8 -30 4 0 7 14 6 30 0 17 -4 30 -7 30 -3 0
-6 -13 -7 -30z"/>
<path d="M14565 1380 c-3 -5 -2 -10 4 -10 5 0 13 5 16 10 3 6 2 10 -4 10 -5 0
-13 -4 -16 -10z"/>
<path d="M14715 1380 c4 -6 11 -8 16 -5 14 9 11 15 -7 15 -8 0 -12 -5 -9 -10z"/>
<path d="M13265 1371 c-3 -5 -2 -12 3 -15 5 -3 9 1 9 9 0 17 -3 19 -12 6z"/>
<path d="M14017 1363 c4 -10 9 -11 19 -2 13 10 18 6 15 -13 0 -5 4 -8 9 -8 6
0 10 7 10 16 0 9 5 12 13 8 6 -4 9 -3 4 1 -13 15 -75 12 -70 -2z"/>
<path d="M12840 1366 c0 -2 7 -6 15 -10 8 -3 15 -1 15 4 0 6 -7 10 -15 10 -8
0 -15 -2 -15 -4z"/>
<path d="M13430 1364 c0 -20 27 -37 36 -23 4 7 3 9 -4 5 -6 -3 -15 2 -21 11
-6 10 -11 13 -11 7z"/>
<path d="M12656 1343 c-6 -14 -5 -15 5 -6 7 7 10 15 7 18 -3 3 -9 -2 -12 -12z"/>
<path d="M13235 1349 c-4 -6 -5 -12 -2 -15 2 -3 7 2 10 11 7 17 1 20 -8 4z"/>
<path d="M13355 1350 c3 -5 8 -10 11 -10 2 0 4 5 4 10 0 6 -5 10 -11 10 -5 0
-7 -4 -4 -10z"/>
<path d="M13640 1340 c0 -5 5 -10 10 -10 6 0 10 5 10 10 0 6 -4 10 -10 10 -5
0 -10 -4 -10 -10z"/>
<path d="M13401 1324 c0 -11 3 -14 6 -6 3 7 2 16 -1 19 -3 4 -6 -2 -5 -13z"/>
<path d="M13861 1324 c0 -11 3 -14 6 -6 3 7 2 16 -1 19 -3 4 -6 -2 -5 -13z"/>
<path d="M12575 1321 c-3 -5 -2 -12 3 -15 5 -3 9 1 9 9 0 17 -3 19 -12 6z"/>
<path d="M12774 1324 c-7 -3 -10 -14 -7 -24 7 -28 18 -25 18 5 0 14 0 25 0 24
0 0 -5 -3 -11 -5z"/>
<path d="M12970 1320 c0 -5 5 -10 11 -10 5 0 7 5 4 10 -3 6 -8 10 -11 10 -2 0
-4 -4 -4 -10z"/>
<path d="M12810 1316 c0 -2 7 -6 15 -10 8 -3 15 -1 15 4 0 6 -7 10 -15 10 -8
0 -15 -2 -15 -4z"/>
<path d="M13480 1305 c0 -8 2 -15 4 -15 2 0 6 7 10 15 3 8 1 15 -4 15 -6 0
-10 -7 -10 -15z"/>
<path d="M13125 1300 c-3 -5 1 -10 10 -10 9 0 13 5 10 10 -3 6 -8 10 -10 10
-2 0 -7 -4 -10 -10z"/>
<path d="M13586 1302 c-2 -4 4 -9 15 -9 11 -1 17 2 14 8 -7 11 -22 12 -29 1z"/>
<path d="M12311 1286 c-7 -8 -8 -17 -3 -20 6 -3 13 1 16 10 9 23 2 28 -13 10z"/>
<path d="M12510 1285 c0 -8 4 -15 10 -15 5 0 7 7 4 15 -4 8 -8 15 -10 15 -2 0
-4 -7 -4 -15z"/>
<path d="M12430 1279 c0 -5 5 -7 10 -4 6 3 10 8 10 11 0 2 -4 4 -10 4 -5 0
-10 -5 -10 -11z"/>
<path d="M12541 1264 c0 -11 3 -14 6 -6 3 7 2 16 -1 19 -3 4 -6 -2 -5 -13z"/>
<path d="M11965 1237 c0 -36 10 -57 28 -57 7 0 6 4 -3 10 -8 5 -10 10 -5 10 6
0 3 5 -5 10 -13 8 -12 10 3 10 9 0 17 5 17 11 0 5 -4 7 -10 4 -5 -3 -10 1 -10
9 0 8 -3 17 -7 19 -5 3 -8 -9 -8 -26z"/>
<path d="M12045 1250 c3 -5 11 -10 16 -10 6 0 7 5 4 10 -3 6 -11 10 -16 10 -6
0 -7 -4 -4 -10z"/>
<path d="M11846 1235 c4 -8 7 -15 9 -15 2 0 5 7 9 15 3 9 0 15 -9 15 -9 0 -12
-6 -9 -15z"/>
<path d="M12097 1243 c-10 -9 -9 -23 2 -23 5 0 11 7 15 15 5 15 -5 20 -17 8z"/>
<path d="M12371 1232 c-8 -14 -6 -19 5 -19 7 0 12 3 9 5 -3 3 0 11 6 19 8 9 8
13 1 13 -6 0 -16 -8 -21 -18z"/>
<path d="M12468 1243 c6 -2 18 -2 25 0 6 3 1 5 -13 5 -14 0 -19 -2 -12 -5z"/>
<path d="M11220 1230 c0 -5 7 -7 15 -4 8 4 15 8 15 10 0 2 -7 4 -15 4 -8 0
-15 -4 -15 -10z"/>
<path d="M11686 1223 c-6 -14 -5 -15 5 -6 7 7 10 15 7 18 -3 3 -9 -2 -12 -12z"/>
<path d="M11902 1235 c4 -4 3 -14 -4 -22 -8 -11 -7 -12 6 -7 19 7 21 20 4 30
-7 4 -10 4 -6 -1z"/>
<path d="M12432 1228 c-17 -17 -15 -28 4 -28 8 0 13 4 10 9 -4 5 -1 11 6 13 8
3 8 7 2 11 -6 3 -16 1 -22 -5z"/>
<path d="M12550 1230 c0 -5 5 -10 10 -10 6 0 10 5 10 10 0 6 -4 10 -10 10 -5
0 -10 -4 -10 -10z"/>
<path d="M11191 1221 c-10 -7 -11 -10 -1 -16 10 -6 9 -11 -5 -22 -11 -7 -14
-13 -8 -13 14 0 27 19 28 42 1 10 1 18 1 18 -1 0 -7 -4 -15 -9z"/>
<path d="M11384 1219 c-3 -6 -2 -15 3 -20 5 -5 9 -1 10 11 2 22 -2 25 -13 9z"/>
<path d="M12190 1221 c0 -7 -5 -9 -12 -5 -7 5 -8 3 -3 -5 5 -9 10 -10 18 -2 6
6 8 14 4 18 -4 3 -7 1 -7 -6z"/>
<path d="M12650 1219 c0 -5 5 -7 10 -4 6 3 10 8 10 11 0 2 -4 4 -10 4 -5 0
-10 -5 -10 -11z"/>
<path d="M11585 1210 c-3 -5 -1 -10 4 -10 6 0 11 5 11 10 0 6 -2 10 -4 10 -3
0 -8 -4 -11 -10z"/>
<path d="M11636 1205 c4 -8 7 -15 9 -15 2 0 5 7 9 15 3 9 0 15 -9 15 -9 0 -12
-6 -9 -15z"/>
<path d="M11680 1189 c0 -5 5 -7 10 -4 6 3 10 8 10 11 0 2 -4 4 -10 4 -5 0
-10 -5 -10 -11z"/>
<path d="M10924 1179 c-3 -6 -2 -15 3 -20 5 -5 9 -1 9 11 0 23 -2 24 -12 9z"/>
<path d="M11045 1180 c3 -5 8 -10 11 -10 2 0 4 5 4 10 0 6 -5 10 -11 10 -5 0
-7 -4 -4 -10z"/>
<path d="M11752 1185 c4 -4 3 -14 -3 -22 -7 -8 -8 -13 -1 -13 15 0 23 28 9 36
-7 4 -9 4 -5 -1z"/>
<path d="M11199 1163 c-12 -16 -12 -17 2 -6 9 7 19 10 22 6 4 -3 7 -1 7 5 0
17 -16 15 -31 -5z"/>
<path d="M10071 1167 c2 -1 15 -11 28 -22 l24 -20 -14 23 c-8 12 -20 22 -28
22 -8 0 -12 -1 -10 -3z"/>
<path d="M10986 1157 c3 -10 9 -15 12 -12 3 3 0 11 -7 18 -10 9 -11 8 -5 -6z"/>
<path d="M11550 1160 c8 -5 22 -9 30 -9 10 0 8 3 -5 9 -27 12 -43 12 -25 0z"/>
<path d="M10265 1151 c-3 -5 -2 -12 3 -15 5 -3 9 1 9 9 0 17 -3 19 -12 6z"/>
<path d="M10464 1145 c-7 -17 3 -35 19 -35 8 0 7 3 -2 9 -8 5 -11 16 -8 25 4
9 4 16 1 16 -2 0 -7 -7 -10 -15z"/>
<path d="M10660 1151 c0 -5 5 -13 10 -16 6 -3 10 -2 10 4 0 5 -4 13 -10 16 -5
3 -10 2 -10 -4z"/>
<path d="M10710 1151 c0 -6 7 -14 15 -17 8 -4 15 -11 15 -16 0 -6 -7 -8 -14
-5 -10 4 -13 1 -9 -9 4 -11 9 -12 16 -5 6 6 20 12 32 12 17 1 17 2 2 6 -15 4
-16 7 -5 21 11 14 10 15 -6 9 -10 -4 -25 -2 -32 4 -11 9 -14 9 -14 0z"/>
<path d="M10506 1143 c5 -5 12 -12 16 -18 4 -6 8 -2 8 8 0 9 -7 17 -17 17 -9
0 -12 -3 -7 -7z"/>
<path d="M10896 1141 c-4 -5 0 -12 6 -14 8 -3 6 -6 -4 -6 -36 -2 -17 -16 21
-16 22 0 37 4 34 8 -3 5 -11 6 -19 3 -8 -3 -14 1 -14 9 0 17 -17 28 -24 16z"/>
<path d="M11211 1124 c0 -11 3 -14 6 -6 3 7 2 16 -1 19 -3 4 -6 -2 -5 -13z"/>
<path d="M9620 1120 c20 -13 33 -13 25 0 -3 6 -14 10 -23 10 -15 0 -15 -2 -2
-10z"/>
<path d="M10002 1118 c-8 -8 -8 -15 -1 -24 7 -8 7 -14 -1 -19 -13 -8 -13 -25
0 -25 6 0 9 6 8 13 -2 6 4 12 12 12 18 1 60 24 43 25 -6 0 -14 -4 -18 -10 -10
-17 -36 1 -30 21 7 22 4 24 -13 7z"/>
<path d="M10200 1115 c0 -8 4 -15 10 -15 5 0 7 7 4 15 -4 8 -8 15 -10 15 -2 0
-4 -7 -4 -15z"/>
<path d="M10120 1106 c0 -8 -6 -17 -12 -19 -8 -4 -7 -6 3 -6 9 -1 19 8 22 19
3 11 1 20 -4 20 -5 0 -9 -6 -9 -14z"/>
<path d="M10250 1111 c0 -5 5 -13 10 -16 6 -3 10 -2 10 4 0 5 -4 13 -10 16 -5
3 -10 2 -10 -4z"/>
<path d="M10360 1111 c0 -8 -7 -10 -21 -6 -15 5 -19 4 -15 -4 4 -6 13 -11 21
-11 16 0 30 18 21 27 -3 4 -6 1 -6 -6z"/>
<path d="M10545 1110 c-3 -6 1 -7 9 -4 18 7 21 14 7 14 -6 0 -13 -4 -16 -10z"/>
<path d="M10790 1098 c0 -4 6 -8 14 -8 8 0 17 4 20 8 2 4 -4 8 -15 8 -10 0
-19 -4 -19 -8z"/>
<path d="M9146 1092 c-2 -4 4 -9 15 -9 10 -1 19 2 19 8 0 11 -27 12 -34 1z"/>
<path d="M9657 1080 c7 -26 19 -34 29 -19 4 8 3 9 -4 5 -7 -4 -12 -1 -12 8 0
8 -4 17 -9 20 -5 4 -7 -3 -4 -14z"/>
<path d="M10570 1090 c-13 -8 -12 -10 3 -10 9 0 17 5 17 10 0 12 -1 12 -20 0z"/>
<path d="M9735 1080 c3 -5 11 -10 16 -10 6 0 7 5 4 10 -3 6 -11 10 -16 10 -6
0 -7 -4 -4 -10z"/>
<path d="M10486 1078 c3 -4 9 -8 15 -8 5 0 9 4 9 8 0 5 -7 9 -15 9 -8 0 -12
-4 -9 -9z"/>
<path d="M9536 1065 c4 -8 7 -15 9 -15 2 0 5 7 9 15 3 9 0 15 -9 15 -9 0 -12
-6 -9 -15z"/>
<path d="M9790 1069 c0 -5 5 -7 10 -4 6 3 10 8 10 11 0 2 -4 4 -10 4 -5 0 -10
-5 -10 -11z"/>
<path d="M10070 1070 c0 -5 5 -10 10 -10 6 0 10 5 10 10 0 6 -4 10 -10 10 -5
0 -10 -4 -10 -10z"/>
<path d="M8915 1060 c-3 -5 -2 -10 4 -10 5 0 13 5 16 10 3 6 2 10 -4 10 -5 0
-13 -4 -16 -10z"/>
<path d="M9376 1053 c-6 -14 -5 -15 5 -6 7 7 10 15 7 18 -3 3 -9 -2 -12 -12z"/>
<path d="M8705 1050 c3 -5 8 -10 11 -10 2 0 4 5 4 10 0 6 -5 10 -11 10 -5 0
-7 -4 -4 -10z"/>
<path d="M8882 1053 c-10 -4 -10 -8 -1 -19 9 -11 8 -15 -2 -18 -41 -13 -43
-14 -22 -15 23 -1 36 13 38 41 1 10 1 18 1 17 -1 0 -7 -3 -14 -6z"/>
<path d="M9074 1049 c-3 -6 -1 -15 5 -20 6 -5 9 -6 6 -3 -3 4 0 13 6 21 8 9 8
13 1 13 -6 0 -14 -5 -18 -11z"/>
<path d="M9273 1045 c0 -8 4 -15 9 -15 4 0 8 4 8 9 0 6 -4 12 -8 15 -5 3 -9
-1 -9 -9z"/>
<path d="M9310 1040 c-9 -6 -11 -10 -3 -10 7 0 10 -7 7 -15 -9 -23 2 -18 20
10 18 27 6 34 -24 15z"/>
<path d="M9567 1044 c-3 -5 3 -15 14 -22 17 -11 19 -9 19 10 0 17 -3 19 -9 9
-7 -11 -9 -11 -13 0 -3 8 -7 9 -11 3z"/>
<path d="M8455 1030 c-3 -5 1 -10 9 -10 9 0 16 5 16 10 0 6 -4 10 -9 10 -6 0
-13 -4 -16 -10z"/>
<path d="M9510 1025 c0 -8 2 -15 4 -15 2 0 6 7 10 15 3 8 1 15 -4 15 -6 0 -10
-7 -10 -15z"/>
<path d="M9655 1020 c-10 -11 -15 -20 -11 -20 11 0 39 30 34 36 -3 2 -13 -5
-23 -16z"/>
<path d="M9705 1030 c-3 -5 -1 -10 4 -10 6 0 11 5 11 10 0 6 -2 10 -4 10 -3 0
-8 -4 -11 -10z"/>
<path d="M9780 1018 c-12 -22 -12 -22 6 -6 10 10 15 20 12 24 -4 3 -12 -5 -18
-18z"/>
<path d="M9193 1023 c-15 -5 -17 -23 -4 -23 5 0 11 7 15 15 3 8 4 15 3 14 -1
0 -8 -3 -14 -6z"/>
<path d="M8735 1010 c3 -5 8 -10 11 -10 2 0 4 5 4 10 0 6 -5 10 -11 10 -5 0
-7 -4 -4 -10z"/>
<path d="M8813 999 c-2 -23 3 -25 10 -4 4 8 3 16 -1 19 -4 3 -9 -4 -9 -15z"/>
<path d="M7995 999 c-9 -14 -2 -20 14 -10 8 6 9 11 3 15 -6 3 -14 1 -17 -5z"/>
<path d="M8975 1000 c-3 -5 -1 -10 4 -10 6 0 11 5 11 10 0 6 -2 10 -4 10 -3 0
-8 -4 -11 -10z"/>
<path d="M9266 997 c3 -10 9 -15 12 -12 3 3 0 11 -7 18 -10 9 -11 8 -5 -6z"/>
<path d="M9435 1000 c-3 -5 -2 -10 4 -10 5 0 13 5 16 10 3 6 2 10 -4 10 -5 0
-13 -4 -16 -10z"/>
<path d="M8670 990 c0 -6 7 -10 15 -10 8 0 15 2 15 4 0 2 -7 6 -15 10 -8 3
-15 1 -15 -4z"/>
<path d="M9115 990 c9 -14 45 -19 45 -5 0 7 -11 13 -25 13 -13 0 -23 -4 -20
-8z"/>
<path d="M8157 983 c-10 -9 -9 -33 1 -33 4 0 8 9 8 20 0 23 0 22 -9 13z"/>
<path d="M8350 980 c0 -5 5 -10 11 -10 5 0 7 5 4 10 -3 6 -8 10 -11 10 -2 0
-4 -4 -4 -10z"/>
<path d="M8400 981 c0 -5 7 -11 15 -15 8 -3 15 -1 15 3 0 5 -7 11 -15 15 -8 3
-15 1 -15 -3z"/>
<path d="M8775 980 c-3 -5 1 -10 10 -10 9 0 13 5 10 10 -3 6 -8 10 -10 10 -2
0 -7 -4 -10 -10z"/>
<path d="M8870 981 c0 -5 5 -13 10 -16 6 -3 10 -2 10 4 0 5 -4 13 -10 16 -5 3
-10 2 -10 -4z"/>
<path d="M9245 980 c-3 -5 -1 -10 4 -10 6 0 11 5 11 10 0 6 -2 10 -4 10 -3 0
-8 -4 -11 -10z"/>
<path d="M8206 965 c-3 -8 -1 -15 4 -15 6 0 10 7 10 15 0 8 -2 15 -4 15 -2 0
-6 -7 -10 -15z"/>
<path d="M7530 962 c0 -5 7 -9 15 -9 8 0 15 4 15 9 0 4 -7 8 -15 8 -8 0 -15
-4 -15 -8z"/>
<path d="M8515 960 c-19 -8 -19 -9 3 -9 12 -1 22 4 22 9 0 6 -1 10 -2 9 -2 0
-12 -4 -23 -9z"/>
<path d="M8980 960 c-8 -5 -12 -11 -9 -14 2 -3 11 -1 19 4 8 5 12 11 9 14 -2
3 -11 1 -19 -4z"/>
<path d="M7691 946 c-7 -8 -8 -17 -3 -20 6 -3 13 1 16 10 9 23 2 28 -13 10z"/>
<path d="M7890 945 c0 -8 4 -15 10 -15 5 0 7 7 4 15 -4 8 -8 15 -10 15 -2 0
-4 -7 -4 -15z"/>
<path d="M8445 951 c-3 -5 -1 -12 5 -16 5 -3 10 1 10 9 0 18 -6 21 -15 7z"/>
<path d="M7940 940 c0 -5 5 -10 11 -10 5 0 7 5 4 10 -3 6 -8 10 -11 10 -2 0
-4 -4 -4 -10z"/>
<path d="M7977 932 c-10 -10 -17 -22 -17 -27 0 -5 9 1 21 14 12 12 19 24 17
27 -3 2 -12 -4 -21 -14z"/>
<path d="M8045 939 c-4 -6 -5 -12 -2 -15 2 -3 7 2 10 11 7 17 1 20 -8 4z"/>
<path d="M7347 909 c4 -13 8 -18 11 -10 2 7 -1 18 -6 23 -8 8 -9 4 -5 -13z"/>
<path d="M8061 909 c-18 -11 -30 -23 -26 -27 4 -4 10 -1 12 6 3 6 9 10 14 6 5
-3 9 0 9 5 0 6 7 11 15 11 8 0 15 5 15 10 0 13 0 13 -39 -11z"/>
<path d="M8225 920 c3 -5 10 -10 16 -10 5 0 9 5 9 10 0 6 -7 10 -16 10 -8 0
-12 -4 -9 -10z"/>
<path d="M8426 913 c-6 -14 -5 -15 5 -6 7 7 10 15 7 18 -3 3 -9 -2 -12 -12z"/>
<path d="M7233 912 c-7 -4 -9 -13 -4 -21 6 -9 10 -7 14 8 3 12 4 21 4 21 -1 0
-7 -4 -14 -8z"/>
<path d="M7430 910 c0 -5 5 -10 11 -10 5 0 7 5 4 10 -3 6 -8 10 -11 10 -2 0
-4 -4 -4 -10z"/>
<path d="M7991 913 c-2 -20 16 -24 30 -5 13 15 12 16 -3 4 -13 -10 -17 -10
-21 0 -4 9 -6 9 -6 1z"/>
<path d="M7530 898 c0 -4 4 -8 9 -8 6 0 12 4 15 8 3 5 -1 9 -9 9 -8 0 -15 -4
-15 -9z"/>
<path d="M7574 896 c-18 -14 -18 -15 4 -13 12 1 22 7 22 14 0 16 -2 16 -26 -1z"/>
<path d="M6380 891 c0 -5 7 -11 15 -15 8 -3 15 -1 15 3 0 5 -7 11 -15 15 -8 3
-15 1 -15 -3z"/>
<path d="M7661 890 c-9 -5 -4 -7 13 -7 29 0 32 2 13 10 -8 3 -20 2 -26 -3z"/>
<path d="M8120 890 c-9 -6 -10 -10 -3 -10 6 0 15 5 18 10 8 12 4 12 -15 0z"/>
<path d="M6571 881 c-9 -6 -10 -11 -2 -15 17 -11 3 -26 -22 -26 -18 0 -19 -2
-7 -10 18 -11 43 10 45 40 1 11 1 20 1 20 -1 0 -7 -4 -15 -9z"/>
<path d="M6770 880 c-12 -7 -12 -11 -2 -20 6 -5 10 -7 7 -4 -3 4 0 13 6 21 13
15 10 16 -11 3z"/>
<path d="M6963 875 c0 -8 4 -15 9 -15 4 0 8 4 8 9 0 6 -4 12 -8 15 -5 3 -9 -1
-9 -9z"/>
<path d="M7620 881 c0 -5 5 -13 10 -16 6 -3 10 -2 10 4 0 5 -4 13 -10 16 -5 3
-10 2 -10 -4z"/>
<path d="M7018 873 c7 -3 16 -2 19 1 4 3 -2 6 -13 5 -11 0 -14 -3 -6 -6z"/>
<path d="M5925 850 c3 -5 10 -10 16 -10 5 0 9 5 9 10 0 6 -7 10 -16 10 -8 0
-12 -4 -9 -10z"/>
<path d="M6111 851 c-8 -5 -10 -14 -6 -21 6 -9 10 -8 17 4 12 21 7 28 -11 17z"/>
<path d="M7102 841 c-11 -6 -9 -9 6 -13 15 -4 19 -2 15 8 -6 16 -4 16 -21 5z"/>
<path d="M6630 836 c0 -2 9 -6 20 -9 11 -3 18 -1 14 4 -5 9 -34 13 -34 5z"/>
<path d="M6750 820 c0 -5 5 -10 11 -10 5 0 7 5 4 10 -3 6 -8 10 -11 10 -2 0
-4 -4 -4 -10z"/>
<path d="M5845 810 c-4 -6 -2 -17 4 -24 6 -7 7 -17 3 -21 -4 -5 -1 -5 6 -1 10
6 10 11 2 21 -7 8 -9 19 -5 25 3 5 4 10 1 10 -3 0 -8 -5 -11 -10z"/>
<path d="M6037 807 c-3 -8 1 -14 9 -14 16 0 19 13 5 21 -5 3 -11 0 -14 -7z"/>
<path d="M6900 810 c0 -5 5 -10 11 -10 5 0 7 5 4 10 -3 6 -8 10 -11 10 -2 0
-4 -4 -4 -10z"/>
<path d="M5893 780 c-6 -17 -7 -30 -2 -30 9 0 24 48 17 55 -2 2 -9 -9 -15 -25z"/>
<path d="M6098 803 c7 -3 16 -2 19 1 4 3 -2 6 -13 5 -11 0 -14 -3 -6 -6z"/>
<path d="M6130 799 c0 -5 5 -7 10 -4 6 3 10 8 10 11 0 2 -4 4 -10 4 -5 0 -10
-5 -10 -11z"/>
<path d="M6370 797 c0 -9 -4 -17 -9 -17 -5 0 -11 -7 -15 -15 -3 -8 -2 -15 3
-15 11 0 36 49 28 57 -4 3 -7 -1 -7 -10z"/>
<path d="M5226 792 c-3 -5 1 -9 9 -9 8 0 15 4 15 9 0 4 -4 8 -9 8 -6 0 -12 -4
-15 -8z"/>
<path d="M5986 791 c-4 -5 -2 -12 3 -15 5 -4 12 -2 15 3 4 5 2 12 -3 15 -5 4
-12 2 -15 -3z"/>
<path d="M6695 790 c3 -5 8 -10 11 -10 2 0 4 5 4 10 0 6 -5 10 -11 10 -5 0 -7
-4 -4 -10z"/>
<path d="M5186 774 c-9 -8 -16 -22 -16 -30 0 -8 -4 -12 -10 -9 -6 3 -7 -1 -3
-10 4 -13 8 -14 14 -4 4 8 11 10 15 6 4 -4 -1 -16 -11 -27 -29 -32 -12 -23 21
11 16 17 22 27 12 24 -24 -9 -32 14 -12 36 20 23 12 26 -10 3z"/>
<path d="M5381 776 c-7 -8 -8 -17 -3 -20 6 -3 13 1 16 10 9 23 2 28 -13 10z"/>
<path d="M5580 775 c0 -8 4 -15 10 -15 5 0 7 7 4 15 -4 8 -8 15 -10 15 -2 0
-4 -7 -4 -15z"/>
<path d="M6450 780 c0 -5 7 -7 15 -4 8 4 15 8 15 10 0 2 -7 4 -15 4 -8 0 -15
-4 -15 -10z"/>
<path d="M5952 771 c-11 -6 -9 -9 6 -13 15 -4 19 -2 15 8 -6 16 -4 16 -21 5z"/>
<path d="M6075 770 c-3 -5 -1 -10 4 -10 6 0 11 5 11 10 0 6 -2 10 -4 10 -3 0
-8 -4 -11 -10z"/>
<path d="M6175 769 c-4 -6 -5 -12 -2 -15 2 -3 7 2 10 11 7 17 1 20 -8 4z"/>
<path d="M4946 758 c3 -5 10 -6 15 -3 13 9 11 12 -6 12 -8 0 -12 -4 -9 -9z"/>
<path d="M4760 750 c0 -5 7 -7 15 -4 8 4 15 8 15 10 0 2 -7 4 -15 4 -8 0 -15
-4 -15 -10z"/>
<path d="M5037 739 c4 -13 8 -18 11 -10 2 7 -1 18 -6 23 -8 8 -9 4 -5 -13z"/>
<path d="M5710 756 c0 -2 9 -6 20 -9 11 -3 18 -1 14 4 -5 9 -34 13 -34 5z"/>
<path d="M6015 750 c3 -5 8 -10 11 -10 2 0 4 5 4 10 0 6 -5 10 -11 10 -5 0 -7
-4 -4 -10z"/>
<path d="M4923 742 c-7 -4 -9 -13 -4 -21 6 -9 10 -7 14 8 3 12 4 21 4 21 -1 0
-7 -4 -14 -8z"/>
<path d="M5120 734 c0 -8 5 -12 10 -9 6 4 8 11 5 16 -9 14 -15 11 -15 -7z"/>
<path d="M5471 733 c0 -12 2 -13 6 -5 4 10 8 10 19 1 12 -10 13 -9 8 5 -8 21
-34 21 -33 -1z"/>
<path d="M5946 735 c25 -19 40 -19 20 0 -8 8 -20 15 -27 15 -7 0 -4 -6 7 -15z"/>
<path d="M5652 720 c-10 -17 -10 -20 5 -20 9 0 13 3 10 7 -4 3 -2 12 4 20 6 7
7 13 3 13 -5 0 -15 -9 -22 -20z"/>
<path d="M4300 720 c0 -5 7 -7 15 -4 8 4 15 8 15 10 0 2 -7 4 -15 4 -8 0 -15
-4 -15 -10z"/>
<path d="M4261 711 c-9 -6 -10 -10 -2 -16 9 -5 9 -10 1 -20 -8 -9 -8 -15 0
-20 6 -4 10 -3 9 2 -1 4 0 10 1 13 2 5 7 50 6 50 -1 0 -7 -4 -15 -9z"/>
<path d="M4460 710 c-13 -8 -12 -12 4 -27 13 -12 16 -13 8 -2 -9 12 -9 18 0
27 14 14 9 15 -12 2z"/>
<path d="M5266 704 c-3 -8 -10 -12 -16 -9 -5 3 -10 -1 -10 -11 0 -13 3 -14 14
-5 11 9 15 9 19 -1 2 -7 4 -1 4 15 1 31 -2 34 -11 11z"/>
<path d="M4508 703 c7 -3 16 -2 19 1 4 3 -2 6 -13 5 -11 0 -14 -3 -6 -6z"/>
<path d="M4580 706 c0 -2 7 -7 16 -10 8 -3 12 -2 9 4 -6 10 -25 14 -25 6z"/>
<path d="M4646 694 c-11 -8 -16 -14 -10 -14 13 0 39 18 34 24 -3 2 -14 -2 -24
-10z"/>
<path d="M4695 699 c-4 -6 -4 -13 -1 -16 3 -4 6 -1 6 6 0 7 4 10 9 6 5 -3 12
-1 16 5 3 5 -1 10 -9 10 -8 0 -18 -5 -21 -11z"/>
<path d="M5053 696 c-9 -11 -6 -13 17 -12 22 0 26 4 18 13 -13 16 -20 16 -35
-1z"/>
<path d="M4790 691 c0 -10 19 -25 25 -20 1 2 -3 10 -11 17 -8 7 -14 8 -14 3z"/>
<path d="M4967 693 c-3 -5 4 -15 16 -23 21 -12 21 -12 7 6 -8 10 -15 20 -16
22 -1 2 -4 -1 -7 -5z"/>
<path d="M5425 690 c-3 -5 -1 -10 4 -10 6 0 11 5 11 10 0 6 -2 10 -4 10 -3 0
-8 -4 -11 -10z"/>
<path d="M3801 681 c-8 -5 -10 -14 -6 -21 6 -9 10 -8 17 4 12 21 7 28 -11 17z"/>
<path d="M4199 688 c-5 -18 -6 -38 -1 -34 7 8 12 36 6 36 -2 0 -4 -1 -5 -2z"/>
<path d="M4518 677 c8 -9 11 -20 8 -25 -3 -5 1 -9 9 -9 16 0 4 31 -18 43 -8 6
-8 3 1 -9z"/>
<path d="M3996 672 c-2 -4 -1 -14 4 -22 7 -11 9 -9 7 8 -1 24 -3 26 -11 14z"/>
<path d="M4402 663 c-13 -23 8 -55 27 -44 9 6 7 10 -8 14 -14 3 -19 10 -15 21
3 9 10 16 16 16 5 0 7 -4 3 -9 -3 -5 -1 -12 4 -15 5 -4 8 2 7 11 -4 24 -23 27
-34 6z"/>
<path d="M4756 668 c3 -5 10 -6 15 -3 13 9 11 12 -6 12 -8 0 -12 -4 -9 -9z"/>
<path d="M4285 660 c-3 -6 1 -7 9 -4 18 7 21 14 7 14 -6 0 -13 -4 -16 -10z"/>
<path d="M4450 650 c0 -5 5 -10 10 -10 6 0 10 5 10 10 0 6 -4 10 -10 10 -5 0
-10 -4 -10 -10z"/>
<path d="M3534 639 c-3 -6 -2 -15 3 -20 5 -5 9 -1 9 11 0 23 -2 24 -12 9z"/>
<path d="M3728 625 c-6 -30 -2 -32 12 -6 6 11 6 22 1 25 -5 3 -11 -5 -13 -19z"/>
<path d="M4235 640 c-3 -5 -1 -10 4 -10 6 0 11 5 11 10 0 6 -2 10 -4 10 -3 0
-8 -4 -11 -10z"/>
<path d="M4307 634 c2 -7 11 -10 19 -7 19 7 18 10 -5 16 -13 3 -18 1 -14 -9z"/>
<path d="M3592 620 c0 -14 2 -19 5 -12 2 6 2 18 0 25 -3 6 -5 1 -5 -13z"/>
<path d="M3788 633 c7 -3 16 -2 19 1 4 3 -2 6 -13 5 -11 0 -14 -3 -6 -6z"/>
<path d="M3948 618 c2 -11 8 -16 11 -11 3 4 10 11 14 14 4 4 -1 9 -11 11 -15
4 -18 1 -14 -14z"/>
<path d="M4090 630 c-13 -8 -12 -10 3 -10 9 0 17 5 17 10 0 12 -1 12 -20 0z"/>
<path d="M3995 620 c3 -5 11 -10 16 -10 6 0 7 5 4 10 -3 6 -11 10 -16 10 -6 0
-7 -4 -4 -10z"/>
<path d="M4460 618 c0 -4 7 -8 15 -8 8 0 15 4 15 8 0 5 -7 9 -15 9 -8 0 -15
-4 -15 -9z"/>
<path d="M2882 611 c-11 -6 -10 -10 0 -19 11 -8 14 -7 14 9 0 10 0 19 -1 19 0
0 -6 -4 -13 -9z"/>
<path d="M3071 606 c-8 -10 -8 -16 1 -24 10 -8 13 -4 14 14 2 28 1 29 -15 10z"/>
<path d="M3187 609 c7 -7 15 -10 18 -7 3 3 -2 9 -12 12 -14 6 -15 5 -6 -5z"/>
<path d="M3270 606 c0 -9 5 -16 10 -16 6 0 10 4 10 9 0 6 -4 13 -10 16 -5 3
-10 -1 -10 -9z"/>
<path d="M4050 610 c0 -5 5 -10 10 -10 6 0 10 5 10 10 0 6 -4 10 -10 10 -5 0
-10 -4 -10 -10z"/>
<path d="M3510 599 c0 -6 -7 -17 -15 -26 -9 -8 -13 -18 -9 -22 4 -3 9 0 11 7
3 6 8 10 12 8 4 -3 8 6 9 20 1 13 0 24 -3 24 -3 0 -5 -5 -5 -11z"/>
<path d="M3970 599 c0 -5 5 -7 10 -4 6 3 10 8 10 11 0 2 -4 4 -10 4 -5 0 -10
-5 -10 -11z"/>
<path d="M2727 569 c4 -13 8 -18 11 -10 2 7 -1 18 -6 23 -8 8 -9 4 -5 -13z"/>
<path d="M2860 575 c0 -8 4 -15 10 -15 5 0 7 7 4 15 -4 8 -8 15 -10 15 -2 0
-4 -7 -4 -15z"/>
<path d="M3111 576 c-9 -11 -9 -16 0 -22 7 -4 9 -3 5 4 -3 6 2 15 11 21 10 6
13 11 7 11 -6 0 -17 -6 -23 -14z"/>
<path d="M3445 579 c-4 -6 -5 -12 -2 -15 2 -3 7 2 10 11 7 17 1 20 -8 4z"/>
<path d="M2613 572 c-7 -4 -9 -13 -4 -21 6 -9 10 -7 14 8 3 12 4 21 4 21 -1 0
-7 -4 -14 -8z"/>
<path d="M2811 566 c5 -26 25 -31 33 -9 4 9 4 14 0 10 -4 -4 -14 -1 -22 5 -12
10 -14 9 -11 -6z"/>
<path d="M3550 575 c0 -2 6 -8 13 -14 10 -8 14 -7 14 2 0 8 -6 14 -14 14 -7 0
-13 -1 -13 -2z"/>
<path d="M2667 563 c-4 -3 -7 -11 -7 -17 0 -6 5 -5 12 2 6 6 9 14 7 17 -3 3
-9 2 -12 -2z"/>
<path d="M3170 555 c-11 -13 -10 -14 4 -9 9 3 16 10 16 15 0 13 -6 11 -20 -6z"/>
<path d="M3297 563 c-4 -3 -7 -11 -7 -17 0 -6 5 -5 12 2 6 6 9 14 7 17 -3 3
-9 2 -12 -2z"/>
<path d="M1780 545 c0 -8 4 -15 10 -15 5 0 7 7 4 15 -4 8 -8 15 -10 15 -2 0
-4 -7 -4 -15z"/>
<path d="M1990 552 c0 -5 7 -9 15 -9 8 0 15 4 15 9 0 4 -7 8 -15 8 -8 0 -15
-4 -15 -8z"/>
<path d="M1955 540 c-3 -5 -3 -14 0 -20 3 -5 1 -10 -4 -10 -6 0 -11 -5 -11
-11 0 -8 5 -8 15 1 8 7 12 17 9 22 -4 6 0 14 7 19 9 6 10 9 2 9 -6 0 -15 -4
-18 -10z"/>
<path d="M2150 540 c-12 -7 -12 -11 -2 -20 6 -5 10 -7 7 -4 -3 4 0 13 6 21 13
15 10 16 -11 3z"/>
<path d="M2346 535 c-3 -8 -1 -15 4 -15 6 0 10 7 10 15 0 8 -2 15 -4 15 -2 0
-6 -7 -10 -15z"/>
<path d="M2955 540 c-3 -5 -1 -10 4 -10 6 0 11 5 11 10 0 6 -2 10 -4 10 -3 0
-8 -4 -11 -10z"/>
<path d="M3061 534 c0 -11 3 -14 6 -6 3 7 2 16 -1 19 -3 4 -6 -2 -5 -13z"/>
<path d="M2198 533 c7 -3 16 -2 19 1 4 3 -2 6 -13 5 -11 0 -14 -3 -6 -6z"/>
<path d="M2270 529 c0 -5 5 -7 10 -4 6 3 10 1 10 -4 0 -6 5 -11 11 -11 8 0 8
5 -1 15 -14 17 -30 20 -30 4z"/>
<path d="M1530 520 c-12 -8 -11 -10 8 -10 12 0 22 5 22 10 0 13 -11 13 -30 0z"/>
<path d="M2380 522 c0 -7 5 -12 10 -12 6 0 10 -5 10 -11 0 -5 -4 -7 -10 -4 -5
3 -10 1 -10 -4 0 -14 17 -14 26 0 3 6 -1 18 -10 27 -10 11 -16 12 -16 4z"/>
<path d="M2655 520 c4 -6 11 -8 16 -5 14 9 11 15 -7 15 -8 0 -12 -5 -9 -10z"/>
<path d="M1497 513 c-4 -3 -7 -11 -7 -17 0 -6 5 -5 12 2 6 6 9 14 7 17 -3 3
-9 2 -12 -2z"/>
<path d="M1887 513 c-10 -9 -9 -23 1 -23 5 0 9 7 9 15 0 17 -1 18 -10 8z"/>
<path d="M2515 509 c-11 -16 -1 -19 13 -3 7 8 8 14 3 14 -5 0 -13 -5 -16 -11z"/>
<path d="M1686 502 c-2 -4 0 -14 6 -22 8 -12 9 -12 5 2 -3 9 -1 19 6 22 9 3 9
5 0 5 -6 1 -14 -3 -17 -7z"/>
<path d="M1535 490 c-3 -6 1 -7 9 -4 18 7 21 14 7 14 -6 0 -13 -4 -16 -10z"/>
<path d="M1915 490 c3 -5 8 -10 11 -10 2 0 4 5 4 10 0 6 -5 10 -11 10 -5 0 -7
-4 -4 -10z"/>
<path d="M1967 493 c-10 -10 -8 -23 4 -23 5 0 8 4 4 9 -3 5 3 12 12 14 14 4
15 5 2 6 -9 0 -19 -2 -22 -6z"/>
<path d="M2425 491 c-6 -11 13 -26 22 -17 4 3 1 6 -6 6 -7 0 -9 5 -6 10 3 6 4
10 1 10 -3 0 -7 -4 -11 -9z"/>
<path d="M2106 475 c-3 -8 -1 -15 3 -15 5 0 11 7 15 15 3 8 1 15 -3 15 -5 0
-11 -7 -15 -15z"/>
<path d="M2226 482 c5 -4 12 -11 15 -15 3 -5 9 -2 12 5 3 9 -3 14 -15 15 -11
1 -16 -1 -12 -5z"/>
<path d="M1031 471 c-8 -5 -9 -11 -3 -15 5 -3 12 1 16 9 6 17 6 18 -13 6z"/>
<path d="M1224 469 c-3 -6 -2 -15 3 -20 5 -5 9 -1 9 11 0 23 -2 24 -12 9z"/>
<path d="M1423 465 c0 -8 4 -15 9 -15 4 0 8 4 8 9 0 6 -4 12 -8 15 -5 3 -9 -1
-9 -9z"/>
<path d="M1473 448 c-2 -16 0 -19 6 -9 7 11 14 10 37 -5 l29 -17 -27 26 c-33
33 -43 34 -45 5z"/>
<path d="M1726 458 c3 -4 15 -8 26 -8 12 0 18 3 14 7 -10 10 -46 11 -40 1z"/>
<path d="M2210 460 c-13 -8 -12 -10 3 -10 9 0 17 5 17 10 0 12 -1 12 -20 0z"/>
<path d="M1556 444 c-8 -20 -4 -25 11 -16 7 4 9 13 4 21 -6 10 -10 9 -15 -5z"/>
<path d="M1595 450 c4 -6 11 -8 16 -5 14 9 11 15 -7 15 -8 0 -12 -5 -9 -10z"/>
<path d="M1940 445 c0 -8 2 -15 4 -15 2 0 6 7 10 15 3 8 1 15 -4 15 -6 0 -10
-7 -10 -15z"/>
<path d="M2056 448 c3 -4 9 -8 15 -8 5 0 9 4 9 8 0 5 -7 9 -15 9 -8 0 -12 -4
-9 -9z"/>
<path d="M572 441 c-11 -6 -10 -10 0 -19 11 -8 14 -7 14 9 0 10 0 19 -1 19 0
0 -6 -4 -13 -9z"/>
<path d="M960 436 c0 -9 5 -16 10 -16 6 0 10 4 10 9 0 6 -4 13 -10 16 -5 3
-10 -1 -10 -9z"/>
<path d="M1970 440 c0 -5 5 -10 11 -10 5 0 7 5 4 10 -3 6 -8 10 -11 10 -2 0
-4 -4 -4 -10z"/>
<path d="M760 425 c0 -8 2 -15 4 -15 2 0 6 7 10 15 3 8 1 15 -4 15 -6 0 -10
-7 -10 -15z"/>
<path d="M1130 421 c0 -5 5 -13 10 -16 6 -3 10 -2 10 4 0 5 -4 13 -10 16 -5 3
-10 2 -10 -4z"/>
<path d="M1600 415 c0 -8 4 -15 10 -15 5 0 7 7 4 15 -4 8 -8 15 -10 15 -2 0
-4 -7 -4 -15z"/>
<path d="M110 410 c-13 -8 -13 -11 -1 -22 8 -8 11 -8 7 -1 -3 6 0 13 6 16 7 2
11 7 8 10 -3 3 -12 2 -20 -3z"/>
<path d="M416 407 c3 -10 9 -15 12 -12 3 3 0 11 -7 18 -10 9 -11 8 -5 -6z"/>
<path d="M500 403 c0 -29 15 -37 31 -16 8 10 9 14 2 10 -7 -4 -16 0 -22 10 -9
16 -10 16 -11 -4z"/>
<path d="M550 405 c0 -8 4 -15 10 -15 5 0 7 7 4 15 -4 8 -8 15 -10 15 -2 0 -4
-7 -4 -15z"/>
<path d="M303 402 c-7 -4 -9 -13 -4 -21 6 -10 10 -9 15 5 8 20 4 25 -11 16z"/>
<path d="M890 395 c0 -8 2 -15 4 -15 2 0 6 7 10 15 3 8 1 15 -4 15 -6 0 -10
-7 -10 -15z"/>
<path d="M36 364 c-4 -9 -4 -19 -1 -22 2 -3 7 3 11 12 4 9 4 19 1 22 -2 3 -7
-3 -11 -12z"/>
<path d="M616 372 c-2 -4 4 -9 15 -9 11 -1 17 2 14 8 -7 11 -22 12 -29 1z"/>
<path d="M90 360 c0 -5 5 -10 10 -10 6 0 10 5 10 10 0 6 -4 10 -10 10 -5 0
-10 -4 -10 -10z"/>
<path d="M270 354 c0 -8 5 -12 10 -9 6 4 8 11 5 16 -9 14 -15 11 -15 -7z"/>
<path d="M730 354 c0 -8 5 -12 10 -9 6 4 8 11 5 16 -9 14 -15 11 -15 -7z"/>
<path d="M417 349 c7 -7 15 -10 18 -7 3 3 -2 9 -12 12 -14 6 -15 5 -6 -5z"/>
<path d="M461 353 c-1 -17 16 -25 25 -12 4 7 3 9 -4 5 -5 -3 -13 0 -15 6 -4 9
-6 10 -6 1z"/>
</g>
</svg>
